<?xml version="1.0" encoding="UTF-8"?>
<svg version="1.1" xmlns="http://www.w3.org/2000/svg" width="5625" height="4500">
<path d="M0 0 C0.76268188 0.05091797 1.52536377 0.10183594 2.31115723 0.15429688 C82.08334964 5.51684813 170.66132449 16.61491084 226.3359375 79.64453125 C228.60725937 82.39291515 230.80535353 85.18999885 233 88 C234.02093847 89.25878423 235.0431681 90.51652192 236.06640625 91.7734375 C292.53124718 161.86065695 326.07537227 251.64790197 373 393 C373.38517792 394.29801544 373.38517792 394.29801544 373.77813721 395.62225342 C400.90543709 487.15542402 421.66278099 581.31075051 439.3125 777.8125 C439.31626648 778.95651276 439.32003296 780.10052551 439.32391357 781.27920532 C439.45220601 857.72149517 439.45220601 857.72149517 418.2109375 880.95703125 C411.2092515 887.29556197 404.62941181 888.6405263 395.34375 888.33984375 C366.61342917 886.5409979 341.10466229 867.68398403 320.8515625 848.6640625 C318.17235981 846.16102656 315.44093537 843.73319394 312.6875 841.3125 C309.15030786 838.13464167 305.96530259 834.85105883 302.90234375 831.21875 C301.00359441 829.00419225 299.03847619 826.86116702 297.05273438 824.72460938 C291.4397441 818.68162258 286.15372909 812.44216136 281 806 C280.08923981 804.88094186 279.17774524 803.76248112 278.265625 802.64453125 C270.80238196 793.45794161 263.75581541 783.99660682 256.78222656 774.43505859 C255.02865235 772.03914775 253.26293372 769.65277177 251.4921875 767.26953125 C243.72624298 756.81036499 236.18229499 746.21455353 228.75 735.51611328 C225.84338354 731.33704112 222.92103235 727.16900236 220 723 C216.48370613 717.97974024 212.96958608 712.95802055 209.46484375 707.9296875 C203.82708423 699.84713234 198.15763634 691.79222614 192.375 683.8125 C188.03982517 677.82850486 183.71740906 671.83619799 179.4375 665.8125 C178.94878418 665.12969971 178.46006836 664.44689941 177.95654297 663.7434082 C177.49521973 663.09202881 177.03389648 662.44064941 176.55859375 661.76953125 C175.96002563 660.92805542 175.96002563 660.92805542 175.34936523 660.06958008 C171.5085337 654.1787299 168.78101782 648.28902007 166.3046875 641.73046875 C165.59101003 639.87416333 164.87704887 638.01796696 164.1628418 636.16186523 C163.79057465 635.18885468 163.4183075 634.21584412 163.03475952 633.21334839 C153.96100178 609.53963436 144.18759644 586.21292643 134 563 C133.4135188 561.65969222 132.82708991 560.31936155 132.24072266 558.97900391 C115.84774411 521.5695261 98.30357379 484.47210947 78.50634766 448.73925781 C76.93705656 445.88553883 75.39308116 443.01934102 73.85546875 440.1484375 C66.22318135 425.90397403 58.24074358 411.90068754 50 398 C49.4858252 397.12891602 48.97165039 396.25783203 48.44189453 395.36035156 C22.98814248 352.27202805 -5.21079706 310.45800765 -36 271 C-36.42313477 270.45601562 -36.84626953 269.91203125 -37.28222656 269.3515625 C-47.77377354 255.87019644 -58.52263017 242.60032614 -69.62304688 229.61523438 C-71.04121346 227.95165457 -72.45075317 226.28104124 -73.859375 224.609375 C-80.68160879 216.54260589 -87.78394069 208.78390638 -95.03833008 201.10522461 C-96.4703096 199.56845306 -97.88743892 198.0178053 -99.2956543 196.45922852 C-106.78064381 188.18271316 -114.58806941 180.25858251 -122.48950195 172.38012695 C-124.69794663 170.1770789 -126.90094551 167.96868531 -129.10351562 165.75976562 C-130.53092924 164.33301235 -131.95865277 162.90656905 -133.38671875 161.48046875 C-134.355774 160.50837715 -134.355774 160.50837715 -135.34440613 159.51664734 C-139.16471182 155.71562228 -143.09376436 152.09577287 -147.18005371 148.58183289 C-150.1355558 146.0130151 -152.96444269 143.31152079 -155.8125 140.625 C-160.75748862 135.99727689 -165.81227238 131.60172182 -171.1015625 127.3671875 C-174.57532163 124.53012815 -177.94021014 121.58118067 -181.3125 118.625 C-187.81600593 112.94628874 -194.49414828 107.54716394 -201.33544922 102.28222656 C-202.92735748 101.05595754 -204.51267342 99.8211448 -206.09765625 98.5859375 C-238.58571914 73.36764343 -272.66730645 50.88715563 -308.25 30.3125 C-309.33958008 29.682229 -310.42916016 29.05195801 -311.55175781 28.40258789 C-317.62597946 24.90266604 -323.73173748 21.49975351 -329.94433594 18.25073242 C-332 17 -332 17 -333 15 C-278.79602866 8.34443571 -224.37648425 2.97424284 -169.82830811 0.14715576 C-166.95970574 -0.00209649 -164.09143993 -0.15698338 -161.22314453 -0.31201172 C-107.68433648 -3.15215016 -53.5091348 -3.65662213 0 0 Z " fill="#FFFFFF" transform="translate(4403,1266)"/>
<path d="M0 0 C0.67183319 0.05639145 1.34366638 0.1127829 2.03585815 0.17088318 C4.23874274 0.3681693 6.43486355 0.60157107 8.6328125 0.84765625 C9.39323853 0.93235168 10.15366455 1.01704712 10.93713379 1.10430908 C16.88920048 1.78803193 22.82379116 2.58585298 28.7578125 3.41015625 C30.17276505 3.60514709 30.17276505 3.60514709 31.61630249 3.80407715 C102.9926368 13.69380666 173.21638776 29.82399406 242.06018066 51.05523682 C244.61416272 51.84191176 247.16968256 52.62340118 249.72558594 53.40380859 C320.33234407 75.00647929 389.33434745 101.96290633 456.75396729 132.0111084 C458.70146802 132.87822483 460.65014492 133.74265061 462.59912109 134.60644531 C465.90197845 136.07058331 469.20316509 137.5384192 472.50289917 139.00958252 C474.30106897 139.81121462 476.09986071 140.61145118 477.89868164 141.41162109 C485.24256248 144.7030954 492.4641586 148.19037828 499.6328125 151.84765625 C499.6328125 152.17765625 499.6328125 152.50765625 499.6328125 152.84765625 C498.61413086 152.93740723 497.59544922 153.0271582 496.54589844 153.11962891 C407.37507167 161.0025573 318.68996796 171.29738468 15.47650146 223.88464355 C11.57740065 224.66025224 7.67778595 225.43323421 3.77794552 226.20511436 C-92.47631273 245.25905829 -188.29770757 266.52008393 -335.19702148 299.88128662 C-338.00294198 300.53174776 -340.80910177 301.18116106 -343.61547852 301.82965088 C-433.72685809 322.6541226 -523.45179289 345.07255332 -764.28955078 423.03344727 C-812.9155837 439.6866498 -861.52219788 455.51013404 -912.3671875 463.84765625 C-913.41745117 464.02554687 -914.46771484 464.2034375 -915.54980469 464.38671875 C-929.5248223 466.68173631 -943.42265493 467.14609041 -957.5546875 467.22265625 C-958.80211227 467.234711 -958.80211227 467.234711 -960.07473755 467.24700928 C-989.35809117 467.46222415 -989.35809117 467.46222415 -999.95703125 458.50390625 C-1002.40765922 455.95145164 -1003.35033824 453.93864227 -1003.9921875 450.47265625 C-1002.53308946 442.0098876 -996.19664632 435.44658861 -989.47094727 430.43457031 C-987.40130398 429.06357671 -985.30300984 427.75895072 -983.1796875 426.47265625 C-982.37217041 425.97354736 -981.56465332 425.47443848 -980.73266602 424.96020508 C-977.95034561 423.24575711 -975.15876828 421.54697931 -972.3671875 419.84765625 C-970.1820739 418.50556282 -967.99718832 417.16309809 -965.8125 415.8203125 C-951.20758878 406.86509589 -936.45316242 398.19486899 -921.58056641 389.69042969 C-918.35133256 387.83856393 -915.12964384 385.97422103 -911.91015625 384.10546875 C-889.61841022 371.17141587 -867.08118097 358.70018325 -844.39160156 346.47900391 C-841.29483754 344.80863119 -838.20184052 343.13144078 -835.109375 341.453125 C-820.9234853 333.76666453 -806.64446898 326.28323008 -792.29414368 318.91004944 C-788.64517994 317.03182234 -785.00588215 315.13610179 -781.37255859 313.2277832 C-767.03638977 305.70281811 -752.60168722 298.38637728 -738.11523438 291.15649414 C-734.99168345 289.59756826 -731.86996589 288.03500977 -728.748703 286.47150898 C-713.36480032 278.76756678 -697.91970495 271.2061487 -682.3671875 263.84765625 C-680.91922246 263.1606651 -679.47130255 262.47357882 -678.0234375 261.78637695 C-674.14120333 259.94585536 -670.25516318 258.11351454 -666.3671875 256.28515625 C-665.67050964 255.95749268 -664.97383179 255.6298291 -664.25604248 255.29223633 C-636.30169287 242.15210914 -608.24932754 229.25030023 -579.99031067 216.77819824 C-574.90808343 214.53369955 -569.83476086 212.26998652 -564.765625 209.99609375 C-527.50736287 193.29860555 -489.85987939 177.49577859 -452.09967041 161.97137451 C-449.25401266 160.80111373 -446.40896952 159.62936703 -443.56396484 158.45751953 C-413.95443083 146.26789762 -384.2370862 134.38455277 -354.3671875 122.84765625 C-353.41175049 122.47854126 -352.45631348 122.10942627 -351.47192383 121.72912598 C-336.78681805 116.05867011 -322.08412335 110.43496108 -307.3671875 104.84765625 C-306.40806458 104.48347595 -305.44894165 104.11929565 -304.46075439 103.74407959 C-270.22608982 90.75363709 -235.83327126 78.20988372 -201.3671875 65.84765625 C-199.79704895 65.2843158 -199.79704895 65.2843158 -198.19519043 64.70959473 C-149.00840572 47.0725768 -99.56203734 30.18592965 -49.9921875 13.66015625 C-49.20315033 13.39696972 -48.41411316 13.13378319 -47.60116577 12.86262131 C-43.05164897 11.34519451 -38.50148491 9.8297371 -33.95028305 8.31737137 C-32.5703093 7.85868625 -31.19047455 7.39958266 -29.81079483 6.94001389 C-25.66782613 5.56058819 -21.5189344 4.20039375 -17.3671875 2.84765625 C-16.42404694 2.5287291 -15.48090637 2.20980194 -14.50918579 1.88121033 C-9.4474265 0.23493955 -5.38294784 -0.47371986 0 0 Z " fill="#FFFFFF" transform="translate(3170.3671875,1496.15234375)"/>
<path d="M0 0 C1.26271729 0.3515918 2.52543457 0.70318359 3.82641602 1.06542969 C37.09597478 10.44438831 69.22670202 22.65302867 100.48193359 37.41259766 C102.83043474 38.51597104 105.18730618 39.59714379 107.55078125 40.66796875 C119.37862847 46.05892044 130.72072538 52.28554493 142.0625 58.625 C142.94486328 59.11516602 143.82722656 59.60533203 144.73632812 60.11035156 C158.51001543 67.77664438 171.85890511 76.01681252 185.0625 84.625 C185.77132324 85.08648438 186.48014648 85.54796875 187.21044922 86.0234375 C204.72838542 97.46796895 221.50660961 109.83581158 238.0625 122.625 C238.74505859 123.15013184 239.42761719 123.67526367 240.13085938 124.21630859 C247.27071 129.71547333 254.21973356 135.38914753 261.02954102 141.29272461 C264.44276953 144.2509837 267.90404573 147.12235631 271.4375 149.9375 C276.88673711 154.35645299 281.97137297 159.12821623 287.05419922 163.95825195 C290.47916895 167.21280133 293.93893552 170.40418613 297.484375 173.52734375 C304.56930372 179.87906867 311.24167838 186.65505059 317.95874023 193.39086914 C320.25196748 195.6894721 322.5505124 197.9826603 324.84960938 200.27539062 C326.33105 201.75749187 327.8121805 203.2399032 329.29296875 204.72265625 C329.9691777 205.39684097 330.64538666 206.0710257 331.34208679 206.76564026 C335.22201074 210.6644408 338.92568226 214.66582382 342.51219177 218.83657837 C344.91316267 221.60631681 347.43002829 224.26457989 349.9375 226.9375 C354.47151694 231.8060575 358.74742781 236.81832164 362.9140625 242.0078125 C365.07761772 244.64341613 367.3263956 247.16923375 369.625 249.6875 C373.9992307 254.49990925 378.05327664 259.50699875 382.0625 264.625 C382.84882813 265.61628906 383.63515625 266.60757812 384.4453125 267.62890625 C396.56153321 282.92133571 408.41220729 298.40450515 419.53662109 314.43554688 C421.16533341 316.7725536 422.80974193 319.09792921 424.45703125 321.421875 C432.6264569 332.96956647 440.44791628 344.7050636 448.0625 356.625 C448.55427734 357.39102539 449.04605469 358.15705078 449.55273438 358.94628906 C457.68526805 371.62283521 465.46707171 384.5018863 473.16796875 397.44433594 C475.07502276 400.64602404 476.99021967 403.84273993 478.90625 407.0390625 C480.10454851 409.04664713 481.30248118 411.05445019 482.5 413.0625 C483.34292603 414.46592651 483.34292603 414.46592651 484.20288086 415.89770508 C484.71214111 416.75517334 485.22140137 417.6126416 485.74609375 418.49609375 C486.41983032 419.62422485 486.41983032 419.62422485 487.10717773 420.77514648 C488.0625 422.625 488.0625 422.625 488.0625 424.625 C482.93992708 423.14886918 478.75182833 420.84908358 474.1875 418.1875 C387.63661222 369.2120132 273.26307228 356.33683926 -19.81030273 329.96606445 C-21.03490204 329.941819 -21.03490204 329.941819 -22.28424072 329.91708374 C-23.78600603 329.88772484 -25.28784075 329.86161533 -26.78973389 329.8397522 C-41.02611057 329.55532827 -41.02611057 329.55532827 -47.3984375 326.25390625 C-48.35331055 325.76776855 -49.30818359 325.28163086 -50.29199219 324.78076172 C-51.28875977 324.25498535 -52.28552734 323.72920898 -53.3125 323.1875 C-54.90819824 322.36789795 -54.90819824 322.36789795 -56.53613281 321.53173828 C-59.67869312 319.91234328 -62.81013282 318.27351459 -65.9375 316.625 C-66.72350586 316.21072754 -67.50951172 315.79645508 -68.31933594 315.36962891 C-71.17379532 313.86169858 -74.02685009 312.3511682 -76.87744141 310.8359375 C-98.00684588 299.66896679 -119.52708586 289.18580307 -141.12646484 278.96435547 C-144.15026416 277.52362566 -147.16376295 276.06285027 -150.17578125 274.59765625 C-165.88362177 266.96298858 -181.71743221 259.65443775 -197.63694763 252.47517395 C-202.39812441 250.32626052 -207.14898368 248.1558423 -211.89453125 245.97265625 C-284.51387124 212.59651589 -359.0708554 183.71454245 -434.9375 158.625 C-435.84159607 158.32571594 -436.74569214 158.02643188 -437.67718506 157.71807861 C-458.97104502 150.68204748 -480.40628861 144.24069367 -502 138.1875 C-503.02528809 137.89976715 -504.05057617 137.6120343 -505.10693359 137.31558228 C-519.98615682 133.1532065 -534.93102138 129.3011094 -549.9375 125.625 C-549.9375 124.965 -549.9375 124.305 -549.9375 123.625 C-476.60272572 102.5114873 -403.08921302 82.11619066 -63.44866943 3.29675293 C-61.16759301 2.86033999 -58.88669839 2.42297534 -56.60601807 1.98449707 C-50.83995705 0.87598336 -45.07196222 -0.22025723 -39.29830933 -1.28857422 C-37.67305438 -1.59026049 -36.04844556 -1.8954542 -34.42459106 -2.20458984 C-21.54499651 -4.64585962 -12.61412415 -3.51242608 0 0 Z " fill="#FFFFFF" transform="translate(3903.9375,1313.375)"/>
<path d="M0 0 C3.28906181 2.57145932 3.85977812 4.10715167 4.50170898 8.19458008 C4.49985596 9.37431396 4.49800293 10.55404785 4.49609375 11.76953125 C4.49673828 13.07083984 4.49738281 14.37214844 4.49804688 15.71289062 C4.48765381 16.38682861 4.47726074 17.0607666 4.46655273 17.75512695 C4.43772492 19.7965722 4.44592746 21.83539376 4.45898438 23.87695312 C4.40123307 32.87282901 4.2623445 39.82803001 -2.1796875 46.61328125 C-5.94232337 50.09870142 -9.99414461 53.1563068 -14.125 56.1875 C-23.80703328 63.43526605 -32.46077828 71.44707166 -41 80 C-41.76699219 80.7321875 -42.53398437 81.464375 -43.32421875 82.21875 C-49.96991213 88.63376642 -55.62562109 95.52306125 -61 103 C-61.40718262 103.56283691 -61.81436523 104.12567383 -62.23388672 104.70556641 C-75.27343211 122.92782679 -84.1470125 143.35748256 -92.75 163.9375 C-93.74708981 166.30313799 -94.74515942 168.66836322 -95.74414062 171.03320312 C-97.55121228 175.31282041 -99.35598253 179.59338228 -101.15672302 183.87566566 C-105.76071302 194.82301514 -110.41923177 205.74696946 -115.07980347 216.6703186 C-117.44767216 222.22183781 -119.81140205 227.77511898 -122.17578125 233.328125 C-125.71449381 241.63753457 -129.25586518 249.94580544 -132.7996521 258.25305176 C-134.91932751 263.22197362 -137.03802118 268.19131399 -139.15673828 273.16064453 C-140.16593608 275.52702826 -141.17552979 277.89324319 -142.18554688 280.25927734 C-143.5869441 283.54221493 -144.98696933 286.82573456 -146.38671875 290.109375 C-146.79609177 291.06737 -147.20546478 292.02536499 -147.62724304 293.01239014 C-148.39417588 294.81292391 -149.14997014 296.61825325 -149.89317322 298.42871094 C-151 301 -151 301 -152.30421448 303.46582031 C-154.75395607 308.40279625 -155.3091599 311.46118027 -153.76782227 316.81445312 C-152.98513869 318.98280017 -152.16546722 321.13802394 -151.31640625 323.28125 C-150.87980682 324.46261032 -150.4432074 325.64397064 -149.99337769 326.86112976 C-149.048913 329.41647155 -148.08397088 331.96267798 -147.10177612 334.50375366 C-145.53268532 338.56360663 -144.01030804 342.64001987 -142.49438477 346.7199707 C-140.6519201 351.66954686 -138.79861573 356.61478088 -136.93039989 361.55469608 C-132.40111546 373.5331507 -128.05325945 385.57481641 -123.71994019 397.62548828 C-121.56092773 403.62220279 -119.38723924 409.61359241 -117.21484375 415.60546875 C-116.34612456 418.00306823 -115.47747218 420.40069192 -114.60888672 422.79833984 C-114.17872253 423.9857074 -113.74855835 425.17307495 -113.30535889 426.39642334 C-109.80682329 436.05448852 -106.31034254 445.71329793 -102.81350708 455.37197876 C-100.62577364 461.41468953 -98.43787873 467.45734183 -96.25 473.5 C-95.37499922 475.91666639 -94.49999922 478.33333305 -93.625 480.75 C-93.191875 481.94625 -92.75875 483.1425 -92.3125 484.375 C-91 488 -89.6875 491.625 -88.375 495.25 C-87.72538803 497.04415596 -87.72538803 497.04415596 -87.06265259 498.8745575 C-86.18712598 501.29269267 -85.31161737 503.71083436 -84.43612671 506.12898254 C-82.25683098 512.1482345 -80.07722866 518.16737509 -77.89697266 524.1862793 C-73.625644 535.97893018 -69.35866156 547.77312158 -65.10159874 559.57092857 C-53.95144718 590.54794231 -53.95144718 590.54794231 -42.5625 621.4375 C-41.97154541 623.04105347 -41.97154541 623.04105347 -41.36865234 624.67700195 C-33.39305509 645.74089317 -20.68457512 661.31153452 -1.13012695 672.39770508 C6.25020937 676.61137472 14.18616643 681.5584993 17 690 C17.26119199 694.2665315 17.2314491 698.53883575 17.25 702.8125 C17.2809375 704.5769043 17.2809375 704.5769043 17.3125 706.37695312 C17.36280109 717.4997809 17.36280109 717.4997809 14 722 C9.78504372 725.99019094 6.24187443 727.95054083 0.57226562 729.31933594 C-0.57545444 729.61743982 -0.57545444 729.61743982 -1.74636078 729.92156601 C-3.50181694 730.37434951 -5.25937451 730.81903372 -7.01852417 731.25724792 C-10.28162624 732.07015937 -13.53888946 732.90432447 -16.79614258 733.74035645 C-24.17811759 735.62831526 -31.56718314 737.48719376 -38.95813179 739.33962727 C-41.17724348 739.89588739 -43.39621935 740.45268629 -45.61515808 741.00963593 C-52.58672067 742.75932273 -59.55873706 744.50718363 -66.53144312 746.25230813 C-74.53116152 748.25448673 -82.52929359 750.26285126 -90.52613688 752.27648187 C-96.7504062 753.84337786 -102.97603077 755.40480804 -109.20269918 756.96214271 C-112.90474118 757.88817452 -116.6061884 758.81643386 -120.30622864 759.75043488 C-123.77847933 760.62677617 -127.25237544 761.49627118 -130.72760773 762.36071014 C-132.59459568 762.82689315 -134.45984349 763.30002831 -136.32501221 763.7734375 C-153.44504746 768.01133538 -153.44504746 768.01133538 -159 765.8125 C-161.83347667 763.24466177 -162.86555519 761.16297441 -163.30639648 757.34960938 C-163.37707252 754.06597398 -163.42096787 750.78438334 -163.4375 747.5 C-163.47037109 746.37851563 -163.50324219 745.25703125 -163.53710938 744.1015625 C-163.59642827 734.76153361 -161.72862303 725.92156925 -155.421875 718.6953125 C-154.54015625 717.84710937 -153.6584375 716.99890625 -152.75 716.125 C-146.19916824 709.45890762 -138.36644094 700.88448765 -136.75 691.375 C-137.00400743 678.176199 -143.5259793 664.97089841 -148.0625 652.8125 C-148.87347948 650.62411135 -149.68376857 648.43546674 -150.4934082 646.24658203 C-152.16964571 641.71659755 -153.84880771 637.18771433 -155.53027344 632.65966797 C-158.90896585 623.55601466 -162.2579717 614.44149736 -165.60418701 605.3258667 C-166.70121502 602.33764128 -167.79904309 599.34971068 -168.89697266 596.36181641 C-177.30761683 573.46643917 -185.66376809 550.55114779 -194.02352905 527.63715744 C-197.43477833 518.28703499 -200.84873452 508.93790659 -204.265625 499.58984375 C-204.68550186 498.44108261 -205.10537872 497.29232147 -205.53797913 496.10874939 C-207.1220182 491.77508824 -208.70610858 487.44144595 -210.29074097 483.10800171 C-214.9674349 470.3186618 -219.62984549 457.5241858 -224.2824707 444.72607422 C-224.83999191 443.19266002 -225.39752005 441.65924835 -225.95505524 440.12583923 C-227.3034498 436.41725511 -228.65175141 432.7086372 -230 429 C-230.09161157 464.48308129 -230.16206716 499.96614179 -230.20426132 535.44931706 C-230.20926398 539.64109763 -230.21444128 543.83287797 -230.21972656 548.0246582 C-230.22130043 549.27638829 -230.22130043 549.27638829 -230.22290608 550.55340584 C-230.240298 564.05458466 -230.27182899 577.55569516 -230.30861118 591.05683348 C-230.3460544 604.91648443 -230.36824299 618.77609966 -230.37635398 632.63579911 C-230.38183475 641.18383104 -230.39912768 649.73166984 -230.43166587 658.27964231 C-230.45285552 664.14612499 -230.45919001 670.01250824 -230.45400551 675.87902639 C-230.45145055 679.26076632 -230.45749517 682.64189869 -230.4768219 686.02362442 C-230.49679081 689.69845522 -230.49191294 693.37246683 -230.48101807 697.0473175 C-230.49849512 698.63345391 -230.49849512 698.63345391 -230.51632524 700.25163347 C-230.44370389 709.34505866 -228.40982321 718.47880822 -222.04296875 725.3203125 C-218.35824193 728.34982021 -214.18902388 730.61374324 -210.0234375 732.91015625 C-205.55331422 735.99997015 -203.00081083 739.66951653 -202 745 C-201.74809348 749.26752539 -201.76875678 753.53829822 -201.75 757.8125 C-201.729375 758.97587891 -201.70875 760.13925781 -201.6875 761.33789062 C-201.63573748 772.70623398 -201.63573748 772.70623398 -205 778 C-210.61733861 782.83637973 -217.53637755 783.97444851 -224.5859375 785.6953125 C-225.97339639 786.04324782 -227.36059201 786.39223439 -228.74754333 786.7421875 C-232.50376262 787.68680799 -236.2634276 788.61695054 -240.02399063 789.54410553 C-243.9705587 790.51923544 -247.9142173 791.50599223 -251.8581543 792.49169922 C-256.79931177 793.725792 -261.74087186 794.95819979 -266.6839447 796.18460083 C-277.75227132 798.93158248 -288.80829156 801.72382997 -299.85762787 804.54617691 C-304.79131045 805.80503011 -309.72678205 807.05684896 -314.662323 808.30839348 C-318.61690733 809.31160841 -322.5704716 810.31851032 -326.52191162 811.33404541 C-330.24212086 812.28979449 -333.9650839 813.23398367 -337.6903553 814.1697998 C-339.05134547 814.51379071 -340.41131755 814.8618413 -341.77010918 815.2144165 C-357.79265212 819.36674195 -357.79265212 819.36674195 -364 818 C-367.33351253 814.65641175 -367.38422161 811.28064296 -367.3984375 806.703125 C-367.40230469 805.4965625 -367.40617187 804.29 -367.41015625 803.046875 C-367.39855469 801.79390625 -367.38695313 800.5409375 -367.375 799.25 C-367.38660156 798.0125 -367.39820312 796.775 -367.41015625 795.5 C-367.37993696 786.03129024 -366.80317539 778.10283973 -359.875 771.125 C-359.08351563 770.29097656 -358.29203125 769.45695312 -357.4765625 768.59765625 C-356.65929688 767.74042969 -355.84203125 766.88320312 -355 766 C-344.25251442 754.01777093 -338.66605185 742.26728735 -338.74552441 726.11041451 C-338.74231793 725.13842997 -338.73911145 724.16644543 -338.73580781 723.16500682 C-338.72750356 719.90658538 -338.73343367 716.64834755 -338.73930359 713.3899231 C-338.73628311 711.03075854 -338.73239415 708.67159496 -338.72771102 706.31243312 C-338.71848903 700.50787116 -338.71858251 694.7033614 -338.72262264 688.89879473 C-338.72694997 681.94451251 -338.71969009 674.99025448 -338.71213136 668.03597674 C-338.69689115 653.61813501 -338.69518631 639.20031083 -338.69765439 624.78246273 C-338.69948705 613.64905945 -338.69772801 602.51566193 -338.69342995 591.38225937 C-338.69282755 589.78272858 -338.69222635 588.18319779 -338.69162634 586.583667 C-338.69071909 584.17332786 -338.68981042 581.76298873 -338.68889399 579.35264959 C-338.68046441 556.94258402 -338.67612881 534.53252062 -338.68030071 512.12245369 C-338.68045709 511.27763793 -338.68061346 510.43282218 -338.68077458 509.56240594 C-338.68158036 505.28054599 -338.68242613 500.99868604 -338.68328788 496.7168261 C-338.68354451 495.4412399 -338.68354451 495.4412399 -338.68380633 494.13988429 C-338.68415298 492.42018777 -338.68450151 490.70049125 -338.68485192 488.98079473 C-338.6902095 462.22041913 -338.68227767 435.46007648 -338.66381836 408.69970703 C-338.64310326 378.6339246 -338.63237468 348.56816259 -338.63639385 318.50237262 C-338.63678919 315.29670581 -338.63715074 312.09103899 -338.63749123 308.88537216 C-338.63758196 308.09605632 -338.63767269 307.30674048 -338.63776617 306.49350597 C-338.63893221 294.57727751 -338.63228335 282.66106966 -338.62167931 270.74484634 C-338.60963218 257.19314519 -338.60806275 243.64148944 -338.62046947 230.08978762 C-338.62651739 223.1742042 -338.62781643 216.25870174 -338.61546707 209.34312439 C-338.60464934 203.01318333 -338.60766271 196.68340562 -338.62172876 190.35347234 C-338.62438701 188.06283546 -338.62197393 185.77218595 -338.61399289 183.48156144 C-338.60389684 180.36793298 -338.61230075 177.25487346 -338.62526989 174.14126778 C-338.61796054 173.2521391 -338.6106512 172.36301042 -338.60312036 171.44693846 C-338.68625508 161.81665667 -340.92192812 154.06545338 -347.609375 147.03125 C-350.9735024 144.1728411 -354.64707551 142.30527596 -358.57421875 140.328125 C-362.67514897 138.08284919 -364.42261964 135.49839876 -366.07104492 131.22045898 C-367.61068462 125.88290647 -367.32785863 120.58239339 -367.3125 115.0625 C-367.32861328 113.90814453 -367.34472656 112.75378906 -367.36132812 111.56445312 C-367.36777667 100.32463217 -367.36777667 100.32463217 -364 95 C-359.9444629 91.91415683 -356.33611852 90.2642295 -351.42138672 88.99560547 C-350.78711887 88.828512 -350.15285103 88.66141853 -349.49936295 88.48926163 C-347.39543947 87.93782741 -345.28773958 87.40260133 -343.1796875 86.8671875 C-341.66874726 86.47433124 -340.1580825 86.08041419 -338.64767456 85.68551636 C-334.57337138 84.62315524 -330.49566786 83.57445134 -326.41716003 82.52836609 C-322.16057886 81.43437289 -317.90700235 80.32883518 -313.65332031 79.22363281 C-311.91919519 78.77317129 -310.18506429 78.32273196 -308.45092773 77.87231445 C-307.15374313 77.53537064 -307.15374313 77.53537064 -305.83035278 77.19161987 C-303.17961176 76.50373807 -300.52845015 75.81749789 -297.87719727 75.1315918 C-286.74487105 72.24920978 -275.62799631 69.31378384 -264.52330399 66.32674026 C-262.14231393 65.6864445 -259.76096467 65.04750324 -257.37948608 64.4090271 C-255.8325777 63.99421234 -254.28567215 63.57938702 -252.73876953 63.16455078 C-251.98653044 62.96282698 -251.23429134 62.76110317 -250.45925713 62.55326653 C-246.74870007 61.55748113 -243.03915605 60.55816705 -239.33148193 59.55169678 C-235.86111711 58.60978452 -232.38838091 57.67717476 -228.9137001 56.75131607 C-227.05157854 56.25238144 -225.19221558 55.74318591 -223.33297729 55.23361206 C-217.40440144 53.66138272 -212.14004076 52.40500039 -206 53 C-203 55 -203 55 -202.32519531 56.76489258 C-201.60670064 61.70319494 -201.77202423 66.70727076 -201.75 71.6875 C-201.7190625 73.40743164 -201.7190625 73.40743164 -201.6875 75.16210938 C-201.63319135 87.02176135 -204.50138847 96.38464695 -212.95703125 104.9921875 C-213.63121094 105.63414062 -214.30539063 106.27609375 -215 106.9375 C-223.20784756 114.84773476 -229.73332279 127.0962022 -230.12304783 138.64690018 C-230.12724737 140.14783428 -230.12590072 141.64878988 -230.12025452 143.14971924 C-230.12110894 143.97801451 -230.12196337 144.80630979 -230.12284368 145.65970492 C-230.12449254 148.43884863 -230.1189868 151.21793215 -230.11352539 153.99707031 C-230.11324336 155.98778278 -230.11340155 157.97849536 -230.1139679 159.96920776 C-230.11425527 165.37789839 -230.10836819 170.78656693 -230.10139394 176.19525242 C-230.09515045 181.84604849 -230.09455581 187.49684505 -230.09336853 193.14764404 C-230.09025816 203.85022105 -230.08204871 214.55278785 -230.07201904 225.25536036 C-230.0608488 237.43901681 -230.05534515 249.62267373 -230.05032361 261.80633402 C-230.03986587 286.870895 -230.02227209 311.93544693 -230 337 C-227.73004883 331.67006242 -225.46126263 326.33963082 -223.19343567 321.00878906 C-222.42601494 319.20527604 -221.65830648 317.40188542 -220.89027405 315.59863281 C-215.42236871 302.75987005 -210.02241616 289.8945885 -204.6875 277 C-204.24011097 275.91952267 -203.79272194 274.83904533 -203.33177567 273.72582626 C-202.36853972 271.3983919 -201.40672874 269.07037403 -200.4453125 266.7421875 C-195.67180965 255.19447334 -190.86938569 243.65885088 -186.0625 232.125 C-185.64173187 231.11526123 -185.22096375 230.10552246 -184.78744507 229.06518555 C-179.23689973 215.74674641 -173.67388818 202.43357221 -168.09936523 189.12515259 C-167.0065025 186.51552719 -165.91427172 183.90563826 -164.82226562 181.2956543 C-164.0885515 179.54215084 -163.35482747 177.78865152 -162.62109375 176.03515625 C-162.25470795 175.15951523 -161.88832214 174.28387421 -161.51083374 173.38169861 C-158.99039066 167.36016466 -156.46303557 161.34156186 -153.93325806 155.32394409 C-152.08808022 150.9319351 -150.2471376 146.53815837 -148.40698242 142.14404297 C-147.5207818 140.03048587 -146.63280234 137.91767363 -145.74291992 135.80566406 C-144.50231194 132.86066499 -143.2680761 129.91306814 -142.03515625 126.96484375 C-141.6703566 126.10314072 -141.30555695 125.24143768 -140.92970276 124.35362244 C-137.77798477 116.78558282 -134.5737318 108.98780091 -134.5625 100.6875 C-134.54316406 99.72199219 -134.52382812 98.75648438 -134.50390625 97.76171875 C-135.15391575 94.14316195 -136.41886462 92.59834295 -139 90 C-141.83518367 88.13923849 -141.83518367 88.13923849 -144.9375 86.5625 C-150.07768405 83.67898212 -154.65968178 81.0727149 -156.60058594 75.17504883 C-157.4750837 70.41288467 -157.22792323 65.51403356 -157.25 60.6875 C-157.2809375 59.01397461 -157.2809375 59.01397461 -157.3125 57.30664062 C-157.34890094 49.63059298 -157.14705501 44.35236304 -151.69848633 38.54833984 C-146.88340017 34.68606751 -140.83443816 33.6812844 -134.96484375 32.20703125 C-133.63643177 31.86091286 -132.30839694 31.51334423 -130.98071289 31.16444397 C-127.38669776 30.22423863 -123.78789572 29.30378069 -120.1877861 28.38722992 C-116.4077141 27.42178802 -112.63190287 26.43996762 -108.85571289 25.45947266 C-104.12433488 24.23208555 -99.39244073 23.00681771 -94.65843201 21.78961182 C-84.06894903 19.06567993 -73.49658258 16.28277277 -62.93354607 13.45809746 C-58.21553695 12.19784273 -53.49540741 10.94555237 -48.7752924 9.69321156 C-44.99602341 8.68997593 -41.21795911 7.68261844 -37.44235229 6.66567993 C-33.88672397 5.70844805 -30.32780667 4.76453904 -26.76611328 3.83013725 C-24.85144654 3.32426608 -22.94040228 2.80474439 -21.02954102 2.28468323 C-7.09606778 -1.34298124 -7.09606778 -1.34298124 0 0 Z " fill="#FFFFFF" transform="translate(2782,1952)"/>
<path d="M0 0 C25.10160449 23.51677814 34.65511991 59.09719002 35.81298828 92.421875 C37.6143621 153.32870287 15.33621128 213.38189406 -26.28125 257.8984375 C-34.8092435 266.9220799 -43.47347574 275.38448089 -53.26953125 283.046875 C-54.3255302 283.90333345 -55.38016148 284.76148029 -56.43359375 285.62109375 C-65.63056912 293.06460708 -75.34587245 299.61462296 -85.26953125 306.046875 C-84.24472656 306.19382812 -84.24472656 306.19382812 -83.19921875 306.34375 C-50.83851367 311.14405919 -19.02976181 317.35164536 6.73046875 339.046875 C7.519375 339.69011719 8.30828125 340.33335937 9.12109375 340.99609375 C34.26788265 362.3866799 45.38100191 394.81557379 48.35546875 426.9296875 C52.47909265 484.73103205 37.4820102 544.42658863 0.73046875 590.046875 C0.01503906 590.95308594 -0.70039062 591.85929687 -1.4375 592.79296875 C-19.85319946 615.77185037 -41.25946029 633.64191928 -66.26953125 649.046875 C-66.98383301 649.48854004 -67.69813477 649.93020508 -68.43408203 650.38525391 C-93.64866891 665.83207865 -120.56024875 677.75855459 -149.15136719 685.32446289 C-150.26361034 685.62118173 -151.3758535 685.91790056 -152.52180099 686.22361088 C-165.50388704 689.66858946 -178.52706617 692.95242118 -191.55510807 696.21836352 C-193.63084111 696.73878882 -195.70644039 697.25974457 -197.78200531 697.78083992 C-204.31144014 699.41996554 -210.84131774 701.057309 -217.37188649 702.69191116 C-224.8531184 704.56447951 -232.33274957 706.44328231 -239.81112599 708.32722133 C-245.64824225 709.79730327 -251.48670132 711.26196627 -257.32621074 712.72251278 C-260.79326336 713.58979787 -264.25971542 714.45932364 -267.72476959 715.3345623 C-271.56489518 716.30435813 -275.40777727 717.26291236 -279.25097656 718.22045898 C-280.38545227 718.5086853 -281.51992798 718.79691162 -282.68878174 719.09387207 C-283.73646729 719.35300888 -284.78415283 719.61214569 -285.86358643 719.87913513 C-286.7682024 720.10602241 -287.67281837 720.33290968 -288.60484695 720.56667233 C-291.57057368 721.10112585 -294.26228058 721.23315833 -297.26953125 721.046875 C-299.85962511 718.82498579 -300.22825598 717.35999345 -300.67358398 713.98168945 C-300.73163038 706.96383279 -300.73163038 706.96383279 -300.71557617 704.42211914 C-300.70712737 702.38257818 -300.73573397 700.34590066 -300.76757812 698.30664062 C-300.76247197 687.95645434 -299.39317497 680.65542406 -292.01953125 673.109375 C-290.84390625 671.85640625 -290.84390625 671.85640625 -289.64453125 670.578125 C-288.46890625 669.32515625 -288.46890625 669.32515625 -287.26953125 668.046875 C-276.74576258 656.17005036 -271.9367059 644.14635573 -272.01226234 628.33655834 C-272.00875627 627.39609825 -272.0052502 626.45563816 -272.00163788 625.48667929 C-271.99234852 622.34149843 -271.99724087 619.19650374 -272.00210571 616.05131531 C-271.99836823 613.77108399 -271.99376631 611.49085395 -271.98837507 609.21062595 C-271.97614205 602.94904245 -271.9764059 596.68751237 -271.97876382 590.42591965 C-271.97912998 584.36505702 -271.97014745 578.30421254 -271.96153804 572.24335778 C-271.94220911 558.31779036 -271.93657025 544.39223769 -271.93542393 530.46665844 C-271.93450444 519.71230051 -271.93038566 508.95794835 -271.92402267 498.2035923 C-271.92222756 495.10669433 -271.92044793 492.00979635 -271.91867292 488.91289836 C-271.91823082 488.14297845 -271.91778873 487.37305853 -271.91733323 486.57980771 C-271.9050272 464.92743862 -271.89713187 443.27507153 -271.89801979 421.62269878 C-271.89805095 420.80657383 -271.89808211 419.99044887 -271.89811421 419.14959285 C-271.89828042 415.01323409 -271.8984785 410.87687533 -271.89868362 406.74051657 C-271.89872351 405.91903636 -271.8987634 405.09755615 -271.8988045 404.2511826 C-271.89888538 402.58995032 -271.89896897 400.92871804 -271.89905529 399.26748575 C-271.90028086 373.41991918 -271.88526536 347.57240508 -271.85791016 321.72485352 C-271.82718192 292.67827266 -271.80997808 263.63172627 -271.8118366 234.58512813 C-271.81198586 231.48728708 -271.81208327 228.38944604 -271.81214523 225.291605 C-271.81216854 224.52885036 -271.81219185 223.76609572 -271.81221587 222.98022731 C-271.81227738 210.71206432 -271.79951245 198.44394693 -271.7822807 186.1757975 C-271.76531831 173.84430393 -271.76335516 161.51287699 -271.77649935 149.18137821 C-271.78323483 142.50246178 -271.78312107 135.82373067 -271.76579285 129.14481926 C-271.75008819 123.02880149 -271.75289953 116.91308008 -271.77036111 110.79706965 C-271.77343668 108.5865059 -271.76977775 106.37592018 -271.75864096 104.16538235 C-271.6717914 86.46058389 -271.6717914 86.46058389 -277.95703125 70.109375 C-281.36308205 67.07154591 -285.25025035 65.16486128 -289.26953125 63.046875 C-294.11007937 60.12427991 -297.70490764 57.17612223 -300.26953125 52.046875 C-300.52771571 47.83757797 -300.54058498 43.62440916 -300.56469727 39.40820312 C-300.58185507 37.31833452 -300.62573344 35.23007166 -300.66992188 33.140625 C-300.68005436 31.80209493 -300.68856873 30.46355144 -300.6953125 29.125 C-300.70989502 27.91231445 -300.72447754 26.69962891 -300.73950195 25.45019531 C-300.14307679 21.13114763 -299.24347166 19.26028425 -296.26953125 16.046875 C-287.7839278 11.00133681 -276.65387054 9.36620744 -267.171875 6.93359375 C-265.27752352 6.44233773 -263.3833314 5.95046683 -261.48928833 5.45802307 C-256.43948353 4.14671578 -251.38770558 2.84317423 -246.33546829 1.54127502 C-241.10526773 0.19227905 -235.87674598 -1.16318801 -230.64819336 -2.51855469 C-228.55360442 -3.06149406 -226.45901519 -3.6044323 -224.36442566 -4.14736938 C-223.33093679 -4.41527912 -222.29744793 -4.68318886 -221.23264122 -4.95921707 C-218.10813288 -5.76884092 -214.98338615 -6.57753933 -211.8585968 -7.38607788 C-199.97722543 -10.46191299 -188.10521297 -13.56995243 -176.24609375 -16.73046875 C-174.92102249 -17.082976 -173.59593433 -17.43541969 -172.27082825 -17.78779602 C-165.11532258 -19.69176028 -165.11532258 -19.69176028 -157.96383667 -21.61074829 C-140.27625992 -26.37594008 -122.47718876 -30.90139784 -104.14453125 -32.203125 C-103.23445312 -32.28046875 -102.324375 -32.3578125 -101.38671875 -32.4375 C-62.90035161 -35.49891557 -29.23796247 -25.16175772 0 0 Z M-165.26953125 38.046875 C-165.26953125 124.506875 -165.26953125 210.966875 -165.26953125 300.046875 C-158.55772334 298.70451342 -153.33658913 297.57113276 -147.33203125 294.796875 C-146.6452832 294.4860498 -145.95853516 294.17522461 -145.25097656 293.85498047 C-116.23269162 280.55436741 -97.33927417 259.77889615 -84.26953125 231.046875 C-83.80933594 230.05042969 -83.34914063 229.05398438 -82.875 228.02734375 C-79.89794654 220.96747412 -78.00086631 213.65456195 -76.14453125 206.234375 C-75.9026709 205.29408447 -75.66081055 204.35379395 -75.41162109 203.38500977 C-71.0350891 185.06146919 -69.7621964 166.34938119 -69.87841797 147.56469727 C-69.89454977 144.48083444 -69.87841548 141.39827783 -69.859375 138.31445312 C-69.82470421 105.91026421 -74.60806251 68.88506021 -97.70703125 44.046875 C-107.27261242 35.30056815 -117.30860694 32.65358294 -129.95703125 32.671875 C-130.94856201 32.67131104 -131.94009277 32.67074707 -132.96166992 32.67016602 C-143.13324957 32.81765029 -155.99419512 33.40920694 -165.26953125 38.046875 Z M-144.51953125 349.796875 C-145.2148999 349.87067383 -145.91026855 349.94447266 -146.62670898 350.02050781 C-153.07684025 350.82292368 -158.83733552 352.43882607 -165.26953125 354.046875 C-165.26953125 446.446875 -165.26953125 538.846875 -165.26953125 634.046875 C-140.44833979 627.27745915 -116.95696721 617.15983282 -98.26953125 599.046875 C-97.37041016 598.25796875 -97.37041016 598.25796875 -96.453125 597.453125 C-70.52156511 573.86804037 -62.45410219 532.27243219 -60.26953125 499.046875 C-59.95780039 491.48127286 -59.93924374 483.91374263 -59.95385742 476.34277344 C-59.957008 472.94693556 -59.93348944 469.55198055 -59.90820312 466.15625 C-59.80803035 431.57835804 -63.51531619 392.84837311 -87.27734375 365.7578125 C-95.30770924 357.84958185 -107.95825978 351.15439917 -119.26953125 350.046875 C-120.41292969 349.91667969 -121.55632812 349.78648437 -122.734375 349.65234375 C-130.10001815 348.9932744 -137.16424624 349.00424925 -144.51953125 349.796875 Z " fill="#FFFFFF" transform="translate(1073.26953125,2459.953125)"/>
<path d="M0 0 C34.85212141 27.63604341 44.78486954 77.49951609 49.71191406 119.37939453 C59.42187884 207.70715892 54.82336624 311.68384666 3.5 423.875 C2.34765921 425.26202805 1.18051848 426.63687409 0 428 C-0.66386719 428.80695312 -1.32773438 429.61390625 -2.01171875 430.4453125 C-17.29371984 448.38863155 -37.89406218 457.56899179 -61 460 C-83.08420874 461.26892691 -103.741973 454.98152919 -121 441 C-121.09370222 455.80409434 -121.1641054 470.60814909 -121.20724869 485.41248035 C-121.22781896 492.28737654 -121.25583255 499.1620878 -121.30175781 506.03686523 C-121.34609007 512.67637893 -121.36916503 519.31575158 -121.37950897 525.95541954 C-121.3868768 528.48345645 -121.40126429 531.01148335 -121.42292023 533.53943825 C-121.45212703 537.09137951 -121.45594865 540.64253728 -121.45410156 544.19458008 C-121.46848267 545.23036697 -121.48286377 546.26615387 -121.49768066 547.33332825 C-121.45261495 555.38770969 -120.06033515 563.28818027 -114.81640625 569.6484375 C-114.07261719 570.21820312 -113.32882813 570.78796875 -112.5625 571.375 C-103.22441317 578.74802856 -103.22441317 578.74802856 -102.35302734 583.609375 C-102.3202848 584.98920666 -102.31604625 586.36992325 -102.3359375 587.75 C-102.32876205 588.85359863 -102.32876205 588.85359863 -102.32144165 589.97949219 C-102.3180512 591.52931873 -102.32719408 593.07921761 -102.34814453 594.62890625 C-102.37492998 596.99381786 -102.34837583 599.35398502 -102.31640625 601.71875 C-102.31971051 603.22917708 -102.3261171 604.73960123 -102.3359375 606.25 C-102.32581635 606.9522168 -102.31569519 607.65443359 -102.30526733 608.37792969 C-102.3857552 611.76983766 -102.82213782 613.7534782 -104.81669617 616.51799011 C-108.87922787 620.30611002 -114.32785012 621.07258363 -119.57983398 622.3215332 C-121.33674561 622.76153908 -121.33674561 622.76153908 -123.12915039 623.21043396 C-126.33078012 624.00833119 -129.53550311 624.7902627 -132.74280047 625.56484246 C-136.10483829 626.38037187 -139.46213856 627.21497665 -142.82008362 628.04716492 C-148.45863256 629.44159991 -154.10034378 630.82255285 -159.74438477 632.19458008 C-166.26173455 633.77898435 -172.77470495 635.38040335 -179.28538841 636.9919675 C-186.22856436 638.71052968 -193.17434068 640.41837257 -200.12115979 642.12214255 C-202.11767609 642.61244195 -204.11374409 643.10453269 -206.1097393 643.59694862 C-209.83466559 644.51507131 -213.56250663 645.42096441 -217.29077148 646.32543945 C-218.39278397 646.59810638 -219.49479645 646.87077332 -220.63020325 647.15170288 C-221.64933807 647.3969017 -222.6684729 647.64210052 -223.7184906 647.89472961 C-224.59876136 648.10946584 -225.47903212 648.32420206 -226.38597775 648.54544544 C-229.33809723 649.05879202 -232.00976841 649.20764291 -235 649 C-237.83802525 646.16197475 -237.32409688 643.37966163 -237.3359375 639.578125 C-237.3425943 638.84051941 -237.3492511 638.10291382 -237.35610962 637.34295654 C-237.36624407 635.77944432 -237.37092639 634.21588878 -237.37060547 632.65234375 C-237.37495848 630.27269865 -237.41120896 627.89493919 -237.44921875 625.515625 C-237.45509106 623.99479799 -237.45905768 622.47396219 -237.4609375 620.953125 C-237.47530853 620.24665833 -237.48967957 619.54019165 -237.50448608 618.81231689 C-237.44909674 612.74704775 -235.20477895 609.26726257 -231.0703125 605.015625 C-230.10738281 604.14164063 -230.10738281 604.14164063 -229.125 603.25 C-218.85604392 593.15282943 -214.35322046 579.4581259 -213.8723495 565.22053319 C-213.86605795 563.83059045 -213.86510702 562.44061661 -213.86857224 561.05066395 C-213.8665196 560.2762838 -213.86446697 559.50190364 -213.86235213 558.70405743 C-213.85670224 556.11183696 -213.85813689 553.51966997 -213.85955811 550.92744446 C-213.85697332 549.0490458 -213.85395985 547.17064769 -213.8505547 545.29225034 C-213.84249487 540.13211273 -213.8406957 534.97198905 -213.83995724 529.8118459 C-213.83810494 524.24590312 -213.83055675 518.67996754 -213.82382202 513.11402893 C-213.81024584 500.94460532 -213.80421522 488.77518501 -213.79981136 476.60575509 C-213.79704798 469.00654483 -213.79281047 461.40733585 -213.78830719 453.80812645 C-213.77611593 432.76601016 -213.76578066 411.72389472 -213.7624321 390.68177509 C-213.76221047 389.32170829 -213.76198868 387.96164148 -213.76176675 386.60157467 C-213.76154611 385.23826753 -213.76132563 383.87496039 -213.7611053 382.51165324 C-213.76066275 379.77673042 -213.76021564 377.04180759 -213.75976562 374.30688477 C-213.75965623 373.62878581 -213.75954684 372.95068685 -213.75943414 372.25203945 C-213.7558037 350.26585784 -213.73988299 328.27970922 -213.71657526 306.29354024 C-213.69196578 283.03682395 -213.67826548 259.78012907 -213.67706418 236.52339715 C-213.67614757 223.85029462 -213.67039872 211.17723529 -213.65224457 198.50414467 C-213.63684125 187.71341368 -213.63172455 176.92273924 -213.63998267 166.13199935 C-213.64388819 160.62777221 -213.64296418 155.12365892 -213.62892532 149.6194458 C-213.61618102 144.57662819 -213.61738868 139.53400995 -213.62951604 134.4911926 C-213.63147209 132.67087546 -213.62839888 130.85054416 -213.61967167 129.03024689 C-213.2888931 110.89087124 -213.2888931 110.89087124 -221 95 C-224.84879032 91.15120968 -229.39730471 89.42437385 -234.37890625 87.44140625 C-237.55780028 85.69325141 -238.97761693 84.00692958 -241 81 C-241.79912015 76.71693544 -241.60319631 72.41221702 -241.5625 68.0625 C-241.58634766 66.89525391 -241.61019531 65.72800781 -241.63476562 64.52539062 C-241.61844433 54.97743038 -241.61844433 54.97743038 -239.15234375 51.43359375 C-230.32731836 44.62071789 -217.09194678 42.58189272 -206.48046875 39.5 C-204.69118013 38.97751751 -202.90198196 38.4547252 -201.11286926 37.93164062 C-196.42573005 36.56220609 -191.73732336 35.19716184 -187.04864502 33.83300781 C-182.31219869 32.45401557 -177.57708504 31.07046278 -172.84179688 29.6875 C-154.74298976 24.4043033 -154.74298976 24.4043033 -147.34335327 22.26171875 C-144.51049691 21.44120607 -141.68114445 20.61002789 -138.85415649 19.76953125 C-137.60460175 19.40214844 -136.355047 19.03476563 -135.06762695 18.65625 C-133.98536331 18.33462891 -132.90309967 18.01300781 -131.78804016 17.68164062 C-129 17 -129 17 -125 17 C-124.505 37.295 -124.505 37.295 -124 58 C-121.36 54.04 -118.72 50.08 -116 46 C-97.41985847 20.03909672 -73.60343301 -2.94293933 -41.11230469 -8.69091797 C-26.57139829 -10.81860954 -12.18846171 -8.33089507 0 0 Z M-118 87 C-118.68979352 87.62346345 -119.37958704 88.2469269 -120.09028339 88.88928318 C-123.04878424 93.70835335 -122.56146102 98.36213407 -122.52812195 103.91209412 C-122.53647861 105.133115 -122.54483527 106.35413589 -122.55344516 107.6121574 C-122.5724546 110.99863712 -122.5735105 114.38425815 -122.56687582 117.77072775 C-122.56400241 121.42387644 -122.58405077 125.07691056 -122.60102844 128.73001099 C-122.63039376 135.88557076 -122.63767778 143.04098954 -122.63645294 150.19660335 C-122.63562082 156.01214544 -122.64147747 161.82764291 -122.65207863 167.64317513 C-122.68476039 185.92566428 -122.69373846 204.20801609 -122.68498889 222.4905302 C-122.67900575 236.91635421 -122.70940953 251.34183848 -122.75661161 265.76757776 C-122.80469385 280.57773551 -122.82678909 295.38772959 -122.8213008 310.19796711 C-122.81872283 318.51373084 -122.82673861 326.82916908 -122.86237144 335.14486504 C-122.89246586 342.22384138 -122.89827965 349.30232282 -122.87256243 356.3813253 C-122.86012508 359.99348939 -122.85898296 363.60472283 -122.88827133 367.21681023 C-122.91967345 371.13196037 -122.89688965 375.04572308 -122.86869812 378.96092224 C-122.89519024 380.67468108 -122.89519024 380.67468108 -122.92221755 382.42306131 C-122.92761663 388.09836506 -122.92761663 388.09836506 -120.45934641 393.01752484 C-118.70831314 394.54250391 -116.97962515 395.79319847 -115 397 C-114.28972656 397.51949219 -113.57945312 398.03898437 -112.84765625 398.57421875 C-104.0668979 404.05018402 -96.52447 406.3518827 -86 405 C-73.86607917 400.95535972 -66.74180276 391.98582289 -61 381 C-50.0770886 357.32503674 -48.64203194 329.77580532 -46.875 304.1875 C-46.79942871 303.10106201 -46.72385742 302.01462402 -46.64599609 300.89526367 C-44.99791707 274.87756475 -44.81174419 248.84318658 -44.81469727 222.78417969 C-44.81477819 219.02924752 -44.80786868 215.27443826 -44.79418945 211.51953125 C-44.72261731 191.53304369 -44.87921335 171.59965694 -45.92578125 151.63671875 C-45.98820479 150.4406645 -45.98820479 150.4406645 -46.05188942 149.22044754 C-47.17130938 106.68909129 -47.17130938 106.68909129 -65.5625 69.6875 C-70.86627979 65.12433811 -76.32780686 63.33486011 -83.265625 63.59765625 C-97.70768268 65.72270188 -108.51265428 76.70482089 -118 87 Z " fill="#FFFFFF" transform="translate(3625,2035)"/>
<path d="M0 0 C38.09433838 32.2209698 47.92145104 84.02553648 52.04980469 131.41601562 C52.18546578 133.195652 52.3164585 134.97564676 52.44433594 136.75585938 C52.57461182 138.46926514 52.57461182 138.46926514 52.70751953 140.21728516 C53.62285626 153.63838942 53.68769995 167.05751699 53.69433594 180.50585938 C53.69501068 181.74029785 53.69568542 182.97473633 53.69638062 184.24658203 C53.63475296 255.56417902 43.76354877 336.71043392 -4.55566406 392.75585938 C-5.00796387 393.28115234 -5.46026367 393.80644531 -5.92626953 394.34765625 C-32.18292183 424.50971761 -68.8263342 443.76975725 -109.00097656 446.63085938 C-133.42759806 447.82604575 -156.26615221 442.6719374 -174.93066406 426.19335938 C-176.4807513 424.72301939 -178.02326818 423.24462833 -179.55566406 421.75585938 C-180.45671875 420.94761719 -180.45671875 420.94761719 -181.37597656 420.12304688 C-211.79855912 391.96447046 -219.42449377 342.66631959 -223.55566406 303.75585938 C-223.73355469 302.09901123 -223.73355469 302.09901123 -223.91503906 300.40869141 C-232.60370268 214.54349037 -225.912099 111.83591045 -170.11816406 42.06835938 C-168.61252386 40.28459025 -167.09081012 38.5142994 -165.55566406 36.75585938 C-165.1114209 36.24458496 -164.66717773 35.73331055 -164.20947266 35.20654297 C-127.6462548 -6.5746161 -49.81920802 -39.84285688 0 0 Z M-105.68066406 48.44335938 C-115.14531456 61.88367607 -118.97041271 77.31188328 -121.74316406 93.25585938 C-121.8980127 94.12436523 -122.05286133 94.99287109 -122.21240234 95.88769531 C-125.9581989 119.04723395 -125.85970478 142.47555856 -125.82431507 165.86026144 C-125.81914834 170.36412869 -125.82397623 174.867989 -125.8270874 179.37185669 C-125.83070041 186.93769823 -125.82600271 194.50350041 -125.81640625 202.06933594 C-125.80556654 210.7130161 -125.8090255 219.35660151 -125.82005906 228.00027931 C-125.82925667 235.51719985 -125.83035638 243.03409255 -125.82518172 250.55101693 C-125.82212418 254.99793355 -125.82147356 259.44480634 -125.8282547 263.89171982 C-125.85150921 281.58189086 -125.65203397 299.21335541 -124.625 316.87744141 C-124.5835072 317.59336574 -124.5420144 318.30929008 -124.49926424 319.04690909 C-123.40128868 337.52518398 -121.63957492 355.90351087 -116.55566406 373.75585938 C-116.28238281 374.71621094 -116.00910156 375.6765625 -115.72753906 376.66601562 C-113.16920549 384.1898421 -108.19930808 390.63562427 -101.57910156 395.08398438 C-95.37792599 397.89110089 -88.48573263 396.92854113 -82.13378906 395.03320312 C-69.58078409 390.03364425 -62.19246789 379.34371547 -57.02905273 367.34887695 C-51.93908354 354.74154638 -50.36841606 341.43440493 -48.86816406 328.00585938 C-48.74860352 326.93754883 -48.62904297 325.86923828 -48.50585938 324.76855469 C-46.27637466 302.86790624 -46.39209203 280.83393942 -46.38840699 258.84591031 C-46.38768516 256.41306354 -46.38552996 253.98022206 -46.38290977 251.54737663 C-46.37371064 242.98136931 -46.36956734 234.41537733 -46.37036133 225.84936523 C-46.37089247 218.85910741 -46.36386534 211.86890567 -46.34985352 204.87866211 C-39.57446606 118.29904766 -39.57446606 118.29904766 -64.61035156 40.40429688 C-70.00807686 35.45468462 -74.73825552 33.23952475 -82.09472656 33.44726562 C-92.20821721 34.71546525 -99.48461757 40.72237917 -105.68066406 48.44335938 Z " fill="#FFFFFF" transform="translate(1706.5556640625,2538.244140625)"/>
<path d="M0 0 C28.02996445 25.11589552 37.86310587 67.07538053 42.91333008 102.71362305 C43.14560303 104.33276611 43.14560303 104.33276611 43.38256836 105.98461914 C46.32000726 128.04257983 47.10455814 150.13134169 47.04368591 172.36407852 C47.03823852 174.435948 47.03587616 176.50780603 47.03381348 178.5796814 C47.00112616 199.66625591 46.43668329 220.53190158 43.72583008 241.46362305 C43.50902588 243.19491455 43.50902588 243.19491455 43.2878418 244.96118164 C35.5823758 304.73614213 14.74664017 369.74212886 -34.59887695 408.20239258 C-64.43690686 430.66570684 -103.42725084 442.68248958 -140.71557617 438.00268555 C-159.38953381 434.63622447 -174.78530208 425.72308838 -188.27416992 412.46362305 C-188.94963867 411.80104492 -189.62510742 411.1384668 -190.32104492 410.45581055 C-234.73549899 363.73180487 -233.71008523 282.6389448 -232.27416992 222.46362305 C-230.33726275 154.03276403 -217.58627795 80.3887397 -169.27807617 28.6237793 C-167.40500413 26.60465875 -165.65480151 24.52199242 -163.89916992 22.40112305 C-159.56444605 17.43861158 -154.4547654 13.50296585 -149.27416992 9.46362305 C-148.38084961 8.73143555 -147.4875293 7.99924805 -146.56713867 7.24487305 C-106.53141756 -24.55972778 -40.93168624 -35.02976731 0 0 Z M-112.33666992 42.96362305 C-135.37222154 75.70164886 -132.60489219 123.52672157 -132.54282093 161.6197958 C-132.53763323 165.8254919 -132.54248779 170.03118084 -132.54559326 174.23687744 C-132.54920157 181.30319818 -132.54452244 188.36947673 -132.53491211 195.43579102 C-132.52408469 203.48754094 -132.52752429 211.53918905 -132.53856492 219.59093642 C-132.54779027 226.61199844 -132.54884905 233.63303069 -132.54368758 240.65409684 C-132.54064313 244.79929902 -132.53993942 248.94445428 -132.54676056 253.08965302 C-132.57201003 270.89410381 -132.26109848 288.63857757 -131.34350586 306.42163086 C-131.30201306 307.23306219 -131.26052026 308.04449351 -131.2177701 308.88051367 C-130.54649343 349.37776339 -130.54649343 349.37776339 -112.89916992 384.15112305 C-106.96456112 388.40140829 -101.53961072 389.92373212 -94.27416992 388.96362305 C-83.68943576 386.73384402 -75.59298953 380.99278194 -69.61791992 371.9597168 C-68.03046147 369.17761486 -66.62590135 366.36734241 -65.27416992 363.46362305 C-64.83202148 362.53291992 -64.38987305 361.6022168 -63.93432617 360.64331055 C-56.99006433 344.47521154 -55.50608309 325.86373561 -54.27416992 308.46362305 C-54.19121674 307.33924835 -54.10826355 306.21487366 -54.02279663 305.056427 C-52.93162626 288.59544889 -53.10945004 272.09471832 -53.10691285 255.60630345 C-53.106194 252.97249794 -53.10404406 250.33869738 -53.10141563 247.70489311 C-53.09219958 238.44974318 -53.08807534 229.19460749 -53.08886719 219.93945312 C-53.08946444 211.42316404 -53.07897245 202.90693901 -53.06312352 194.39066607 C-53.04986705 186.99360019 -53.04469084 179.59655474 -53.0453226 172.19947714 C-53.04557269 167.82006055 -53.04300348 163.44070081 -53.03214455 159.06129646 C-52.99119696 141.2921251 -53.20311895 123.58490318 -54.20263672 105.84033203 C-54.26496567 104.72733929 -54.26496567 104.72733929 -54.3285538 103.59186184 C-55.96681377 66.16712384 -55.96681377 66.16712384 -72.27416992 33.46362305 C-86.85699338 22.74971194 -101.93746389 30.34189541 -112.33666992 42.96362305 Z " fill="#FFFFFF" transform="translate(1394.274169921875,2625.536376953125)"/>
<path d="M0 0 C3.67662716 3.02675239 7.01328733 6.33112171 10.33886719 9.73632812 C11.21285156 10.60128906 12.08683594 11.46625 12.98730469 12.35742188 C48.76938401 49.40563632 50.48833755 108.13431394 50.57910156 156.40942383 C50.58900212 159.59220711 50.62027677 162.77439277 50.65136719 165.95703125 C50.65788335 168.01497023 50.66313923 170.07291368 50.66699219 172.13085938 C50.67933899 173.06533401 50.69168579 173.99980865 50.70440674 174.96260071 C50.6850157 180.70869168 50.43783204 186.73395825 47.33886719 191.73632812 C43.38373788 194.84501843 39.79351555 196.43764141 34.94384766 197.66479492 C33.67987152 197.99060547 32.41589539 198.31641602 31.11361694 198.65209961 C29.7278213 198.99681704 28.34196522 199.3412916 26.95605469 199.68554688 C25.48979167 200.0587545 24.02378395 200.43296633 22.55801392 200.80810547 C18.60208848 201.81738722 14.64264907 202.81217319 10.68234253 203.80410385 C6.54955541 204.84166273 2.42002259 205.8920226 -1.70996094 206.94067383 C-9.43354325 208.89935972 -17.16031539 210.84513092 -24.88869858 212.78477955 C-30.85380617 214.28190559 -36.81787354 215.78310329 -42.78125 217.28710938 C-52.23966728 219.67217704 -61.69978881 222.0503985 -71.16113281 224.42382812 C-71.90725075 224.61111355 -72.65336868 224.79839897 -73.42209625 224.99135971 C-77.69322875 226.06328877 -81.96498555 227.13265742 -86.23781204 228.19781494 C-88.1445379 228.67360794 -90.05071579 229.15159518 -91.95687866 229.62963867 C-93.08195831 229.90936523 -94.20703796 230.1890918 -95.36621094 230.47729492 C-96.83676941 230.84433784 -96.83676941 230.84433784 -98.33703613 231.21879578 C-100.66113281 231.73632812 -100.66113281 231.73632812 -102.66113281 231.73632812 C-102.59876523 240.32801123 -102.5208961 248.91937825 -102.4254179 257.51075077 C-102.3814808 261.50397132 -102.3420799 265.49710741 -102.31469727 269.49047852 C-103.76022475 329.15176486 -103.76022475 329.15176486 -81.59472656 382.08007812 C-75.61145931 387.82401469 -69.65221961 390.72233127 -61.34863281 391.11132812 C-50.02651935 390.63710348 -41.29096549 386.84245543 -32.97363281 379.29882812 C-32.21050781 378.45320313 -31.44738281 377.60757813 -30.66113281 376.73632812 C-30.21511719 376.29417969 -29.76910156 375.85203125 -29.30957031 375.39648438 C-14.64279769 359.98460833 -9.26813121 335.57077376 -5.20727539 315.42749023 C-4.940802 314.12823608 -4.940802 314.12823608 -4.66894531 312.80273438 C-4.52086426 312.03904541 -4.3727832 311.27535645 -4.22021484 310.48852539 C-4.03571777 309.91030029 -3.8512207 309.3320752 -3.66113281 308.73632812 C-0.35428823 307.08290583 3.35946044 307.24481128 7.00292969 306.98242188 C7.8689682 306.91724869 8.73500671 306.8520755 9.62728882 306.78492737 C11.46475401 306.64763528 13.30237652 306.51243532 15.14013672 306.37915039 C17.93207152 306.17614009 20.72335727 305.96556229 23.51464844 305.75390625 C25.30237507 305.62128864 27.09013459 305.48911338 28.87792969 305.35742188 C29.70531647 305.29493759 30.53270325 305.23245331 31.38516235 305.16807556 C36.38452321 304.81011754 41.32661328 304.67924831 46.33886719 304.73632812 C44.93046524 348.67846883 31.07381899 393.54336153 0.33886719 425.73632812 C-0.18578125 426.32414062 -0.71042969 426.91195312 -1.25097656 427.51757812 C-11.2954504 438.35436415 -24.31390048 445.77074799 -37.66113281 451.73632812 C-38.8509375 452.2803125 -40.04074219 452.82429688 -41.26660156 453.38476562 C-67.71138456 464.74708242 -99.0420075 468.35875652 -126.41113281 458.42382812 C-155.46488791 446.45424932 -173.78595369 422.46564535 -185.63378906 394.14257812 C-216.1801461 317.21009988 -211.43557321 214.01545113 -175.26660156 92.78710938 C-173.20980947 88.02966371 -170.98035586 83.37057844 -168.66113281 78.73632812 C-168.30873535 78.01670898 -167.95633789 77.29708984 -167.59326172 76.55566406 C-159.82455578 60.7769219 -150.25259302 45.98068393 -138.66113281 32.73632812 C-137.94570312 31.89972656 -137.23027344 31.063125 -136.49316406 30.20117188 C-119.27467414 10.48371527 -97.78793714 -3.06901207 -72.66113281 -10.26367188 C-71.63761719 -10.58335938 -70.61410156 -10.90304687 -69.55957031 -11.23242188 C-46.49650128 -17.41309546 -19.29581711 -14.67888732 0 0 Z M-86.84863281 47.09960938 C-101.60653 68.56853309 -102.8474922 98.1438822 -102.75878906 123.34179688 C-102.75691973 124.91791234 -102.75549827 126.49402839 -102.75450134 128.07014465 C-102.75071669 132.18162696 -102.7409219 136.2930729 -102.72979736 140.40454102 C-102.71949525 144.61474109 -102.71498502 148.82494715 -102.70996094 153.03515625 C-102.69929524 161.26889674 -102.68226863 169.50260788 -102.66113281 177.73632812 C-94.83696332 176.42398372 -87.18213034 174.7094215 -79.50097656 172.73242188 C-77.83344078 172.30740135 -77.83344078 172.30740135 -76.13221741 171.87379456 C-73.80488646 171.27973159 -71.47802215 170.68383776 -69.15161133 170.08618164 C-65.57849145 169.16865611 -62.00373332 168.25773754 -58.42871094 167.34765625 C-56.16103412 166.76796406 -53.89345247 166.18789943 -51.62597656 165.60742188 C-50.55524399 165.33449814 -49.48451141 165.0615744 -48.3813324 164.78038025 C-47.39592972 164.52664139 -46.41052704 164.27290253 -45.39526367 164.01147461 C-44.52687363 163.78878403 -43.65848358 163.56609344 -42.76377869 163.33665466 C-40.62874371 162.79699779 -40.62874371 162.79699779 -38.66113281 161.73632812 C-38.59116503 150.81696454 -38.53808658 139.89765558 -38.5056963 128.97811222 C-38.49013899 123.90598104 -38.4690857 118.83400489 -38.43481445 113.76196289 C-38.40186228 108.85359137 -38.38420543 103.94536757 -38.37650108 99.03689384 C-38.37102114 97.17810178 -38.36032348 95.31931642 -38.34394264 93.46058846 C-38.20003483 76.43106242 -38.4537805 55.61533103 -49.59863281 41.61132812 C-54.0730302 37.0693076 -58.0612284 35.55301134 -64.41113281 35.23632812 C-74.07436467 35.53531426 -80.79226309 39.71230356 -86.84863281 47.09960938 Z " fill="#FFFFFF" transform="translate(3921.6611328125,1962.263671875)"/>
<path d="M0 0 C2.51928246 2.23809558 4.96652072 4.53498181 7.40234375 6.86328125 C8.00691406 7.39308594 8.61148438 7.92289063 9.234375 8.46875 C38.73551564 35.34449639 45.51122791 83.30546187 47.40234375 120.86328125 C47.54628692 125.65658689 47.58871192 130.44689461 47.60546875 135.2421875 C47.61116882 136.53849594 47.6168689 137.83480438 47.6227417 139.1703949 C47.63310729 141.8802834 47.63904742 144.59014343 47.64257812 147.30004883 C47.64812101 150.7597302 47.67233032 154.21902956 47.70055008 157.67858982 C47.72366303 161.01228162 47.72561924 164.34591979 47.73046875 167.6796875 C47.74281555 168.91409073 47.75516235 170.14849396 47.7678833 171.42030334 C47.74892855 178.69864309 47.51608801 183.60541552 42.29248047 189.07080078 C38.40625117 191.48106396 34.57622824 192.45926017 30.16015625 193.54296875 C29.20425598 193.78853516 28.24835571 194.03410156 27.26348877 194.28710938 C24.02112898 195.11657557 20.77440689 195.92743814 17.52734375 196.73828125 C15.21148721 197.32594593 12.895903 197.91468467 10.58056641 198.50439453 C5.29705974 199.84745955 0.01145122 201.18187036 -5.27539062 202.51171875 C-14.00330762 204.70817439 -22.7241587 206.9320444 -31.44467163 209.15768433 C-40.37712549 211.43741122 -49.3115792 213.70927049 -58.24607086 215.98099518 C-61.22691328 216.7393643 -64.20744584 217.49894145 -67.18792725 218.25872803 C-71.92513289 219.4658663 -76.6635937 220.66795514 -81.40302277 221.86633301 C-83.17150897 222.314305 -84.93957786 222.76392793 -86.70720673 223.215271 C-89.14175778 223.83659777 -91.57773218 224.45199928 -94.01416016 225.06591797 C-94.72856703 225.24966917 -95.4429739 225.43342037 -96.17902946 225.62273979 C-99.46856654 226.44514526 -102.17507879 226.86328125 -105.59765625 226.86328125 C-105.51177332 234.74167622 -105.41638553 242.6199006 -105.31012917 250.49804401 C-105.26101636 254.15954947 -105.21471143 257.82103702 -105.17578125 261.48266602 C-106.18250358 321.11396162 -106.18250358 321.11396162 -85.28515625 375.30078125 C-77.69924841 382.53385617 -69.76710564 384.33899904 -59.53125 384.140625 C-50.40466039 383.49714152 -43.38350823 379.82265126 -36.59765625 373.86328125 C-36.015 373.38503906 -35.43234375 372.90679688 -34.83203125 372.4140625 C-17.79039065 357.17637935 -10.72111321 328.10556639 -7.62890625 306.3828125 C-6.59765625 303.86328125 -6.59765625 303.86328125 -4.17138672 302.7590332 C0.42641265 301.60659941 4.89190956 301.29201079 9.61328125 301.01171875 C10.58141754 300.94796051 11.54955383 300.88420227 12.54702759 300.81851196 C15.62337109 300.61762906 18.70028146 300.42780174 21.77734375 300.23828125 C23.8698388 300.10359489 25.96228749 299.96818617 28.0546875 299.83203125 C33.17007379 299.50074623 38.28599695 299.17937102 43.40234375 298.86328125 C43.49724924 306.04874344 42.88974721 312.82285538 41.77734375 319.92578125 C41.60058105 321.05612793 41.42381836 322.18647461 41.24169922 323.35107422 C37.37048991 347.02310729 30.70440689 368.73945508 19.40234375 389.86328125 C18.82484375 390.94738281 18.24734375 392.03148438 17.65234375 393.1484375 C2.18063041 420.90440472 -25.23773634 441.87948191 -55.59765625 450.86328125 C-86.00368504 458.89854064 -115.66602867 460.65348156 -143.9140625 444.58203125 C-148.84164349 441.42608418 -153.23718181 437.75406848 -157.59765625 433.86328125 C-158.43167969 433.12464844 -159.26570313 432.38601563 -160.125 431.625 C-188.73729713 404.73034472 -198.63477861 362.28127619 -203.59765625 324.86328125 C-203.7486377 323.75678223 -203.89961914 322.6502832 -204.05517578 321.51025391 C-209.4976015 279.39750345 -208.95648853 233.96691125 -203.59765625 191.86328125 C-203.51044312 191.16984619 -203.42322998 190.47641113 -203.33337402 189.76196289 C-196.24027139 133.74970296 -180.30236053 73.74563615 -141.59765625 30.86328125 C-140.36717679 29.42690482 -139.13783407 27.98955299 -137.91015625 26.55078125 C-136.81180307 25.31641704 -135.70778493 24.08706597 -134.59765625 22.86328125 C-134.05625 22.25613281 -133.51484375 21.64898438 -132.95703125 21.0234375 C-114.42112448 1.3189627 -88.96706003 -10.52980857 -62.59765625 -15.13671875 C-61.53224609 -15.33394531 -61.53224609 -15.33394531 -60.4453125 -15.53515625 C-39.35495446 -18.83470487 -16.58855653 -13.64502319 0 0 Z M-87.59765625 41.86328125 C-108.19995758 68.74789868 -105.92818524 107.91869845 -105.73498535 139.96899414 C-105.71414516 143.80482716 -105.70531197 147.64068862 -105.6953125 151.4765625 C-105.67416812 158.93887687 -105.64025449 166.40105512 -105.59765625 173.86328125 C-97.51233053 172.52634907 -89.63345042 170.69043207 -81.7109375 168.60546875 C-80.5279155 168.29755402 -79.34489349 167.98963928 -78.12602234 167.6723938 C-74.38640257 166.69813425 -70.64826941 165.7183037 -66.91015625 164.73828125 C-64.35882055 164.07254639 -61.80738914 163.40717821 -59.25585938 162.7421875 C-53.03534572 161.12012226 -46.81603949 159.49349346 -40.59765625 157.86328125 C-40.55085561 148.42992682 -40.51554892 138.99661371 -40.49403191 129.56316757 C-40.48369327 125.18057845 -40.46972097 120.79807004 -40.44677734 116.41552734 C-38.08209751 74.75500321 -38.08209751 74.75500321 -53.59765625 37.86328125 C-58.31440203 33.78764654 -62.94460336 32.50237014 -69.05859375 32.58203125 C-75.9793087 33.34863352 -83.00662724 36.56979971 -87.59765625 41.86328125 Z " fill="#FFFFFF" transform="translate(3311.59765625,2122.13671875)"/>
<path d="M0 0 C1.23169922 1.09054688 1.23169922 1.09054688 2.48828125 2.203125 C33.4320914 31.27009441 41.57985367 78.49774514 43 119 C43.19160874 127.43442131 43.22737169 135.86959364 43.24023438 144.3059082 C43.25007627 148.21781631 43.28125841 152.12922711 43.3125 156.04101562 C43.31901947 158.54166359 43.32427407 161.04231525 43.328125 163.54296875 C43.3404718 164.70547653 43.3528186 165.86798431 43.36553955 167.0657196 C43.33698378 177.39778109 43.33698378 177.39778109 40 182 C36.10392472 185.68924569 32.25535855 187.0841052 27.14794922 188.33325195 C25.97331556 188.63685544 25.97331556 188.63685544 24.77495193 188.94659233 C22.16280782 189.61848543 19.54643964 190.27208519 16.9296875 190.92578125 C15.06009148 191.40264659 13.1907842 191.88064519 11.32174683 192.35969543 C7.31345202 193.38453695 3.30324202 194.40137725 -0.70861816 195.41217041 C-7.03053923 197.00542371 -13.34708536 198.61930229 -19.66308594 200.23583984 C-30.51967547 203.0117557 -41.38177948 205.76547696 -52.24609375 208.51098633 C-57.87308267 209.93317515 -63.49848218 211.36155694 -69.12359428 212.79114819 C-73.51154926 213.90523625 -77.90056273 215.01510687 -82.28989029 216.12377357 C-84.36913561 216.64970773 -86.44798695 217.17720209 -88.52642441 217.70631981 C-91.391346 218.435228 -94.2577049 219.15818656 -97.12451172 219.87963867 C-97.96986984 220.09612564 -98.81522797 220.31261261 -99.686203 220.53565979 C-100.4640062 220.73011688 -101.24180939 220.92457397 -102.04318237 221.12492371 C-102.71500486 221.2949953 -103.38682735 221.46506689 -104.0790081 221.64029217 C-106 222 -106 222 -110 222 C-109.91430528 230.17370751 -109.81897399 238.34722972 -109.71247292 246.52068996 C-109.66325897 250.31901609 -109.61694733 254.11732381 -109.578125 257.91577148 C-109.26475678 288.16744811 -108.62942394 318.68371499 -100.0625 347.9375 C-99.71977051 349.11662964 -99.71977051 349.11662964 -99.37011719 350.31958008 C-96.16289699 360.57540561 -90.91865811 370.57917787 -81.25 375.875 C-72.90793288 379.6589017 -64.67907742 379.81621981 -56 377 C-39.5182197 370.07347967 -29.82876833 357.52273156 -22.90771484 341.33007812 C-17.78651254 328.18409782 -13.83536704 314.37510793 -11.47265625 300.46484375 C-11 298 -11 298 -10 297 C-7.32237074 296.69614878 -4.66229907 296.45123923 -1.9765625 296.24609375 C-1.16061615 296.18092056 -0.3446698 296.11574738 0.4960022 296.04859924 C2.23267292 295.91109635 3.96952825 295.77590905 5.70654297 295.64282227 C8.32966837 295.44098801 10.95192147 295.22986877 13.57421875 295.01757812 C22.059207 294.346207 30.48055299 293.74914288 39 294 C37.67644887 339.59633638 22.15222716 385.76950338 -11.26953125 417.67578125 C-37.27871496 441.48371164 -73.76467036 452.17399519 -108.48144531 451.13623047 C-134.56928379 449.72512017 -155.96478727 435.95476254 -173 417 C-175.60027226 413.80580759 -177.84273419 410.50620052 -180 407 C-180.63292969 405.98808594 -181.26585938 404.97617188 -181.91796875 403.93359375 C-199.66755628 374.30517202 -206.50289905 339.70092662 -209.6171875 305.6796875 C-209.68186848 304.97718243 -209.74654945 304.27467735 -209.81319046 303.55088425 C-211.21691404 287.95420084 -211.47837836 272.4160609 -211.38672256 256.76504898 C-211.37474708 254.57882795 -211.36781769 252.39263567 -211.36190796 250.20639038 C-211.29457357 228.69179958 -210.86933915 207.35076929 -208 186 C-207.91278687 185.33488403 -207.82557373 184.66976807 -207.73571777 183.98449707 C-199.40226916 120.54625986 -178.55244137 48.16390404 -125.8125 6.9375 C-89.5271146 -20.54720551 -36.94746834 -33.02971068 0 0 Z M-93 39 C-108.81662411 61.55614532 -110.19767435 91.17865342 -110.09765625 117.828125 C-110.09578602 119.31313021 -110.09436498 120.79813604 -110.09336853 122.28314209 C-110.08959091 126.14965587 -110.07980257 130.01613075 -110.06866455 133.88262939 C-110.05834687 137.84492466 -110.05384895 141.80722636 -110.04882812 145.76953125 C-110.03817493 153.51303837 -110.02115733 161.25651369 -110 169 C-102.8899688 168.32378304 -96.16491348 166.65593967 -89.2578125 164.875 C-88.05309296 164.56804199 -86.84837341 164.26108398 -85.60714722 163.94482422 C-82.42761541 163.13338215 -79.24926592 162.317498 -76.0713501 161.49975586 C-72.82745402 160.66683476 -69.58151942 159.84195163 -66.3359375 159.015625 C-63.87228023 158.38586873 -61.40873454 157.75567577 -58.9453125 157.125 C-57.77767365 156.82706543 -56.61003479 156.52913086 -55.40701294 156.22216797 C-54.33184418 155.94518066 -53.25667542 155.66819336 -52.14892578 155.3828125 C-51.20042755 155.13934082 -50.25192932 154.89586914 -49.27468872 154.64501953 C-46.99391812 154.07456046 -46.99391812 154.07456046 -45 153 C-44.95318267 143.82741367 -44.91788453 134.65486992 -44.89637566 125.48218918 C-44.88604052 121.22066712 -44.87207505 116.95922816 -44.84912109 112.69775391 C-42.87313848 71.86169296 -42.87313848 71.86169296 -57 35 C-61.4684804 30.64050693 -65.56219223 28.91191535 -71.75 28.625 C-80.0924928 28.82333564 -87.59993886 32.6618436 -93 39 Z " fill="#FFFFFF" transform="translate(3024,2201)"/>
<path d="M0 0 C12.26896454 12.76191401 14.50072994 28.87932164 14.18359375 45.73828125 C13.90697717 52.37134021 12.58588619 58.06559102 9.875 64.1328125 C9.400625 65.2053125 8.92625 66.2778125 8.4375 67.3828125 C1.25556705 82.02290659 -10.84224558 94.12025517 -26.125 100.1328125 C-39.61524063 104.53567909 -52.47459337 106.43324743 -65.64453125 99.87890625 C-72.51695489 95.69618738 -76.42958927 90.55565759 -78.4375 82.7578125 C-80.41123351 71.65556152 -78.23029957 61.87622464 -74.4375 51.3828125 C-72.95969634 47.0437294 -72.5906038 43.71335137 -73.125 39.1328125 C-74.79298752 36.3329763 -75.94422324 34.66212622 -78.9375 33.3203125 C-92.70435947 32.14029597 -104.96660981 36.73603489 -115.67578125 45.1328125 C-127.80907874 55.44335362 -136.48368438 69.06159704 -138.125 85.1328125 C-139.10821855 101.02232654 -136.35102783 113.62909734 -126.41796875 126.3125 C-120.38164779 132.86171097 -112.65098954 137.4928054 -105.125 142.1328125 C-104.43470703 142.55981445 -103.74441406 142.98681641 -103.03320312 143.42675781 C-93.76916349 149.0806088 -84.22808311 154.12716697 -74.515625 158.95703125 C-73.65299545 159.38602722 -72.79036591 159.81502319 -71.90159607 160.25701904 C-67.56412461 162.40907075 -63.21992968 164.5460953 -58.86547852 166.66357422 C-24.66545618 183.3994662 9.48645248 205.55433261 22.58984375 243.09765625 C34.76227664 279.98676741 27.99254939 323.90491202 10.875 358.1328125 C4.80943792 369.56297482 -2.44458884 379.57663286 -11.125 389.1328125 C-11.93195313 390.04804688 -12.73890625 390.96328125 -13.5703125 391.90625 C-44.7414395 427.09264082 -89.01765854 449.75432431 -136.125 453.1328125 C-153.9913324 454.02683169 -170.67060382 452.67082122 -187.125 445.1328125 C-188.06859375 444.70226563 -189.0121875 444.27171875 -189.984375 443.828125 C-203.41183744 437.11439378 -213.04355877 426.5473135 -218.4375 412.5703125 C-219.02624756 410.7661676 -219.59052882 408.95377462 -220.125 407.1328125 C-220.35058594 406.40320312 -220.57617188 405.67359375 -220.80859375 404.921875 C-225.83918387 385.14645177 -221.20722697 365.33218826 -211.125 348.1328125 C-200.92952896 332.19373899 -186.15312854 324.38884769 -168.125 320.1328125 C-158.25809636 318.24686003 -147.92070586 317.95384395 -139.0859375 323.38671875 C-132.1109249 328.83316476 -129.21617972 336.54798889 -128.125 345.1328125 C-127.00768211 355.69519099 -129.15181192 365.52944146 -131.43383789 375.80639648 C-133.03795636 383.31200315 -133.87248435 389.66701915 -131 397.0078125 C-127.69953204 400.74834285 -124.32793412 401.8611725 -119.52734375 402.453125 C-102.07271866 403.15788779 -83.72261803 395.14993119 -70.71484375 383.7265625 C-57.64528494 370.63729093 -48.34676873 355.14301067 -47.8125 336.3203125 C-48.08449329 321.44067938 -53.30023509 309.33316145 -63.56640625 298.578125 C-79.87524124 282.99136057 -100.99132561 272.70197042 -120.72973633 262.19238281 C-142.88718283 250.36036324 -164.50387451 237.11608527 -183.125 220.1328125 C-184.08792969 219.26398437 -185.05085938 218.39515625 -186.04296875 217.5 C-205.08399214 199.48325235 -213.59737559 174.5547466 -214.328125 148.70703125 C-214.92693984 103.67768095 -199.0807508 66.46881972 -168.125 34.1328125 C-167.59922363 33.5744873 -167.07344727 33.01616211 -166.53173828 32.44091797 C-127.77802837 -8.57962638 -49.10891583 -43.15084883 0 0 Z " fill="#FFFFFF" transform="translate(2012.125,2461.8671875)"/>
<path d="M0 0 C2.91450805 3.77904634 3.37249478 6.6295923 3.36076355 11.33381653 C3.36488754 12.61122711 3.36901154 13.8886377 3.3732605 15.20475769 C3.36264441 16.61282562 3.35174 18.02089139 3.34057617 19.42895508 C3.3397296 20.91735822 3.34020562 22.40576262 3.34190369 23.89416504 C3.34276391 27.92897429 3.32513385 31.96351562 3.30418181 35.99826264 C3.28541952 40.21698283 3.28366493 44.43570925 3.28010559 48.65446472 C3.27078381 56.64065803 3.24616823 64.62672803 3.21605712 72.61286706 C3.18251726 81.70590022 3.16602814 90.79893929 3.15097082 99.89201891 C3.11961879 118.59474916 3.0668557 137.29736467 3 156 C3.5732753 155.84966309 4.1465506 155.69932617 4.73719788 155.54443359 C10.7208454 153.97705951 16.70751168 152.42164654 22.69604492 150.87304688 C24.9286076 150.29406043 27.16039102 149.71206026 29.39135742 149.12695312 C32.60393848 148.2849662 35.81919439 147.45396714 39.03515625 146.625 C40.02709488 146.36251465 41.01903351 146.1000293 42.04103088 145.82958984 C53.807308 142.82374505 53.807308 142.82374505 59.375 144.875 C61 146 61 146 62 148 C62.13574006 150.84660948 62.21274662 153.66751332 62.23828125 156.515625 C62.246353 157.36421082 62.25442474 158.21279663 62.26274109 159.08709717 C62.27658441 160.88600622 62.28730546 162.68494157 62.29516602 164.48388672 C62.31234614 167.22544728 62.35622484 169.96579156 62.40039062 172.70703125 C62.41052061 174.45572031 62.41903575 176.20441961 62.42578125 177.953125 C62.44328934 178.76896057 62.46079742 179.58479614 62.47883606 180.425354 C62.45877507 185.73209115 61.67532292 188.89635428 58 193 C52.94305587 196.3238333 47.01251079 197.46975558 41.203125 198.91796875 C40.17314392 199.18007645 39.14316284 199.44218414 38.08197021 199.7122345 C35.91435247 200.26248304 33.74589477 200.80943202 31.57666016 201.35327148 C28.24584163 202.1885428 24.91768512 203.03381262 21.58984375 203.88085938 C19.48191814 204.41464454 17.37385005 204.94786747 15.265625 205.48046875 C14.26670227 205.73354294 13.26777954 205.98661713 12.23858643 206.24736023 C11.3171283 206.47792618 10.39567017 206.70849213 9.44628906 206.94604492 C8.63387756 207.15017502 7.82146606 207.35430511 6.98443604 207.56462097 C5 208 5 208 3 208 C3.03603861 245.30896338 3.09304025 282.61783911 3.17792095 319.92672446 C3.18793769 324.33737978 3.19778194 328.74803547 3.20751953 333.15869141 C3.2094609 334.0367258 3.21140228 334.91476019 3.21340248 335.81940168 C3.24437289 350.01231424 3.26138926 364.20521066 3.27319422 378.39815062 C3.28563153 392.97543373 3.31319096 407.55263248 3.35461307 422.12986231 C3.37967481 431.11544026 3.39312265 440.10087819 3.39142957 449.08649158 C3.39139968 455.25908231 3.40613779 461.43153104 3.43216428 467.60406637 C3.44672536 471.15845508 3.45508708 474.71255269 3.44580269 478.26696587 C2.72729136 502.87211758 2.72729136 502.87211758 12 525 C15.89936285 528.14115341 20.05077426 529.12712052 25 529 C31.45981643 527.94721346 37.1959814 525.5086701 43.125 522.8125 C48.84830128 520.28695981 52.78941555 519.08368426 59 520 C63.4301151 523.3496156 64.46195733 529.21378685 66.1875 534.25 C66.55552734 535.27480469 66.92355469 536.29960937 67.30273438 537.35546875 C71.49087821 549.43037696 71.49087821 549.43037696 69.0390625 555.30078125 C49.40671937 583.23077217 11.49489403 605.57311381 -21.79296875 612.46875 C-37.52268748 615.07440377 -52.6954535 614.5645349 -66.125 605.3125 C-80.1999099 594.14771064 -85.06619536 576.7150281 -87.31231201 559.60775089 C-88.67900302 547.50848028 -88.26616997 535.24932066 -88.23213124 523.08919334 C-88.22340934 519.17396464 -88.22642302 515.25874156 -88.22793579 511.34350586 C-88.22897917 504.57752894 -88.22276015 497.81159092 -88.21146011 491.04562378 C-88.19513335 481.26344883 -88.1899898 471.48129248 -88.18748413 461.69910538 C-88.18311823 445.82413254 -88.16983925 429.94918038 -88.15087891 414.07421875 C-88.13249141 398.66276146 -88.11834899 383.25130981 -88.10986328 367.83984375 C-88.10933783 366.88820874 -88.10881239 365.93657373 -88.10827102 364.9561013 C-88.10566074 360.18152868 -88.10313338 355.40695603 -88.10064721 350.63238335 C-88.07994915 311.0882411 -88.04475389 271.54412192 -88 232 C-89.62808594 232.433125 -89.62808594 232.433125 -91.2890625 232.875 C-92.7342763 233.25038021 -94.17959441 233.62535897 -95.625 234 C-96.33785156 234.19078125 -97.05070312 234.3815625 -97.78515625 234.578125 C-107.55187276 237.0870063 -107.55187276 237.0870063 -112.33959961 234.96118164 C-114.78318695 232.07493887 -114.59213153 229.23545647 -114.56640625 225.62109375 C-114.57260483 224.8943898 -114.57880341 224.16768585 -114.58518982 223.41896057 C-114.59229353 221.8781976 -114.58910417 220.33735796 -114.57641602 218.79663086 C-114.56268608 216.46904626 -114.59643584 214.14559551 -114.63476562 211.81835938 C-114.69090573 201.53013206 -113.2922148 193.7274198 -106.3515625 185.78515625 C-105.45179688 184.88667969 -104.55203125 183.98820312 -103.625 183.0625 C-85.6227711 164.28506999 -84.71760817 141.68515664 -84.69503975 116.97211838 C-84.69132396 113.70099106 -84.67446419 110.43015307 -84.65428162 107.15908813 C-84.59931748 97.87222657 -84.5680588 88.58532716 -84.54370117 79.29833984 C-84.52782997 73.58693358 -84.49763894 67.87574254 -84.45893669 62.16444778 C-84.44730801 59.99796453 -84.44135653 57.8314429 -84.44125557 55.66492844 C-84.44106353 52.64536674 -84.42280452 49.62640244 -84.40063477 46.60693359 C-84.40750053 45.27438538 -84.40750053 45.27438538 -84.414505 43.91491699 C-84.34674496 38.10983364 -83.50824176 33.70200822 -79.40087891 29.27734375 C-73.51835745 24.89698042 -67.24424183 22.46769299 -60.375 20 C-58.4786838 19.30219233 -56.58237297 18.60436996 -54.68623352 17.90608215 C-52.6226008 17.14844419 -50.55672456 16.39714681 -48.49072266 15.64599609 C-44.46799945 14.17823818 -40.46029497 12.67254666 -36.45489502 11.15823364 C-33.008858 9.85580497 -29.55962616 8.56197299 -26.10992432 7.26928711 C-24.41871745 6.63408671 -22.7285589 5.99608778 -21.03948975 5.35522461 C-18.65606 4.45258078 -16.26820288 3.56275842 -13.87890625 2.67578125 C-12.81653999 2.26879753 -12.81653999 2.26879753 -11.73271179 1.85359192 C-7.72138727 0.38068677 -4.25964548 -0.75823928 0 0 Z " fill="#FFFFFF" transform="translate(2170,2237)"/>
<path d="M0 0 C1.11109131 -0.0153479 1.11109131 -0.0153479 2.24462891 -0.03100586 C11.49009247 0.11697951 17.67924505 3.47702264 24.3515625 9.76953125 C34.02269488 20.81532291 36.23118714 35.1980589 35.4765625 49.41015625 C33.76838244 68.12735159 25.91925631 86.1628247 11.34375 98.40625 C1.13737029 106.02873611 -10.61391233 109.58151691 -23.3125 108.4375 C-30.96380207 106.81951765 -36.68622126 103.95784557 -42.5703125 98.828125 C-44.20149444 97.22955338 -44.20149444 97.22955338 -46.3125 97.4375 C-67.99239279 141.5083303 -77.41344164 188.95375504 -77.48950195 237.91650391 C-77.49578466 239.72026189 -77.50243297 241.52401863 -77.50941467 243.32777405 C-77.53022032 249.18986143 -77.54078593 255.05194842 -77.55078125 260.9140625 C-77.55483583 262.94541816 -77.55895294 264.97677371 -77.56313133 267.00812912 C-77.58212111 276.54580038 -77.59637215 286.08346414 -77.6047433 295.62115061 C-77.61453144 306.58693914 -77.64091824 317.55252668 -77.68124419 328.51824439 C-77.71146129 337.02993388 -77.72621695 345.54156583 -77.72952431 354.05330789 C-77.73186568 359.12237754 -77.7407091 364.19123089 -77.76598549 369.26024246 C-77.78937379 374.02601112 -77.79345649 378.79142249 -77.78322411 383.55723381 C-77.78273147 385.29658515 -77.78897068 387.0359548 -77.80278015 388.77525139 C-77.90578831 402.52757245 -76.64605379 415.52343595 -67.3125 426.4375 C-63.88166685 429.82789111 -60.16061266 432.76983684 -56.375 435.75 C-54.3125 437.4375 -54.3125 437.4375 -53.3125 439.4375 C-53.06668477 444.03693017 -53.12729003 448.6447491 -53.125 453.25 C-53.11275391 454.53455078 -53.10050781 455.81910156 -53.08789062 457.14257812 C-53.08595703 458.38072266 -53.08402344 459.61886719 -53.08203125 460.89453125 C-53.07792236 462.02866455 -53.07381348 463.16279785 -53.06958008 464.33129883 C-53.32434507 467.58896218 -53.63595069 469.62981389 -55.3125 472.4375 C-60.74130189 475.76799005 -66.76700238 477.01580377 -72.88232422 478.53198242 C-74.0407785 478.82502762 -75.19923279 479.11807281 -76.39279175 479.41999817 C-79.55684205 480.21857286 -82.72239559 481.0107856 -85.88890219 481.79955459 C-88.53853268 482.46041235 -91.1870681 483.12560073 -93.83562291 483.79075414 C-100.0872231 485.36066735 -106.34062277 486.92325402 -112.59521484 488.48120117 C-119.03358066 490.08505367 -125.46884837 491.7009063 -131.9026984 493.3227703 C-137.44004603 494.71820646 -142.97920149 496.10628856 -148.51985943 497.48852235 C-151.82314162 498.3126624 -155.12569284 499.13947492 -158.42654037 499.9733181 C-162.1101333 500.90166498 -165.7965303 501.81793497 -169.48388672 502.73120117 C-170.56778687 503.00701019 -171.65168701 503.28281921 -172.76843262 503.56698608 C-178.44809623 504.95930652 -183.46402015 505.7408796 -189.3125 505.4375 C-191.08402324 500.12293029 -190.53810289 494.38002388 -190.55273438 488.81396484 C-190.56243528 486.57742047 -190.59346772 484.34179739 -190.625 482.10546875 C-190.63153116 480.67708877 -190.63678119 479.24870224 -190.640625 477.8203125 C-190.6499707 476.52496582 -190.65931641 475.22961914 -190.66894531 473.89501953 C-190.17483522 469.1021516 -188.58616585 466.5796341 -185.04296875 463.40234375 C-184.20378906 462.73332031 -183.36460937 462.06429687 -182.5 461.375 C-176.1601128 455.8507708 -172.0023472 448.72368396 -170.3125 440.4375 C-170.22115105 438.64564651 -170.18342784 436.85074231 -170.18107224 435.05656338 C-170.17723109 433.95811326 -170.17338995 432.85966315 -170.1694324 431.72792667 C-170.17029888 430.52143264 -170.17116537 429.31493861 -170.17205811 428.07188416 C-170.16908698 426.78990869 -170.16611586 425.50793322 -170.1630547 424.18711001 C-170.15498629 420.62588439 -170.15319522 417.06467894 -170.15245724 413.50344527 C-170.15060635 409.66345468 -170.14305873 405.82347454 -170.13632202 401.98348999 C-170.12273823 393.58449724 -170.11671361 385.18550927 -170.11231136 376.78650737 C-170.10954842 371.54066476 -170.10531092 366.29482399 -170.10080719 361.04898262 C-170.08861334 346.52139241 -170.07831498 331.99380368 -170.0749321 317.46620846 C-170.07471253 316.53631858 -170.07449297 315.6064287 -170.07426675 314.64836035 C-170.07404847 313.71625418 -170.07383019 312.78414802 -170.0736053 311.82379621 C-170.07316183 309.93502104 -170.07271527 308.04624587 -170.07226562 306.1574707 C-170.0720442 305.22057447 -170.07182277 304.28367824 -170.07159463 303.31839121 C-170.06764876 288.14588365 -170.05020171 272.97342419 -170.0269061 257.8009352 C-170.0031753 242.21901255 -169.99072942 226.637114 -169.98956418 211.05517298 C-169.98864827 202.30841711 -169.98291737 193.56172387 -169.96474457 184.81498528 C-169.94932009 177.36479322 -169.94423686 169.91468312 -169.95248267 162.46447813 C-169.95638118 158.66565095 -169.95549892 154.86698872 -169.94142532 151.06818199 C-169.92628173 146.94267019 -169.93457671 142.81752772 -169.94500732 138.69200134 C-169.93695092 137.50112236 -169.92889452 136.31024339 -169.92059398 135.08327717 C-170.01686868 118.76872098 -175.1475132 108.0137202 -186.3125 96.4375 C-186.87839844 95.90769531 -187.44429687 95.37789062 -188.02734375 94.83203125 C-191.9288103 90.59852499 -190.53921705 83.03093693 -190.5625 77.6875 C-190.583125 76.51960938 -190.60375 75.35171875 -190.625 74.1484375 C-190.65361449 67.83894266 -190.66108608 62.88259214 -187.3125 57.4375 C-183.57513378 53.91827788 -179.83045977 52.34290353 -174.97314453 50.96191406 C-174.27159304 50.75290592 -173.57004154 50.54389778 -172.84723091 50.32855606 C-170.67255822 49.68509052 -168.49348884 49.05918471 -166.3125 48.4375 C-165.65873131 48.2487883 -165.00496262 48.0600766 -164.33138275 47.86564636 C-159.81008146 46.56162646 -155.27791219 45.29942924 -150.7421875 44.046875 C-149.32207422 43.65299231 -147.90200061 43.25896654 -146.48196411 42.86480713 C-143.5431404 42.04973922 -140.6037989 41.23657438 -137.6640625 40.42480469 C-133.90864767 39.38759586 -130.15470676 38.34515754 -126.4011364 37.30129623 C-123.48489503 36.49096936 -120.56785776 35.68353883 -117.65057755 34.87696075 C-116.26531485 34.49355746 -114.88030751 34.10923024 -113.49557114 33.72393036 C-111.56671758 33.18766086 -109.63665274 32.65575392 -107.70654297 32.12402344 C-106.06684036 31.67032379 -106.06684036 31.67032379 -104.39401245 31.2074585 C-101.40187275 30.45983102 -98.35466533 29.94452755 -95.3125 29.4375 C-94.9825 58.4775 -94.6525 87.5175 -94.3125 117.4375 C-90.3525 105.5575 -86.3925 93.6775 -82.3125 81.4375 C-79.45173401 74.62435994 -76.63183698 68.0037406 -73.3125 61.4375 C-72.97798828 60.76041992 -72.64347656 60.08333984 -72.29882812 59.38574219 C-60.25253602 35.11704259 -42.56344023 11.47678255 -16.1875 2 C-10.7640014 0.48220546 -5.59758498 0.05920633 0 0 Z " fill="#FFFFFF" transform="translate(4195.3125,1868.5625)"/>
</svg>
