<svg id="svg" version="1.1" xmlns="http://www.w3.org/2000/svg" xmlns:xlink="http://www.w3.org/1999/xlink" width="400" height="400" viewBox="0, 0, 400,400"><g id="svgg"><path id="path0" d="M0.000 200.000 L 0.000 400.000 200.000 400.000 L 400.000 400.000 400.000 200.000 L 400.000 0.000 200.000 0.000 L 0.000 0.000 0.000 200.000 M225.271 114.796 C 228.451 115.317,229.905 116.161,231.307 118.300 C 235.008 123.947,237.876 139.564,235.278 139.933 C 233.334 140.209,230.126 136.340,227.317 130.327 C 224.394 124.074,220.769 119.465,216.562 116.655 C 214.202 115.080,214.258 114.914,217.222 114.707 C 221.097 114.437,223.218 114.460,225.271 114.796 M213.278 117.472 C 216.999 119.358,226.278 129.292,223.083 127.969 C 221.015 127.112,218.726 126.643,213.985 126.105 C 209.019 125.541,208.462 125.394,204.656 123.643 C 202.430 122.618,199.222 121.344,197.527 120.810 C 195.831 120.276,194.444 119.726,194.444 119.586 C 194.444 119.081,207.929 115.925,209.406 116.084 C 210.199 116.170,211.942 116.795,213.278 117.472 M192.407 121.812 C 195.773 122.511,201.128 124.389,202.395 125.316 C 203.005 125.761,202.771 125.848,200.338 126.080 C 192.695 126.807,179.845 129.535,170.217 132.475 C 151.779 138.106,162.616 130.399,183.889 122.753 C 189.146 120.864,188.291 120.958,192.407 121.812 M218.818 133.216 C 218.935 134.425,217.850 135.503,217.029 134.995 C 216.829 134.871,216.499 135.208,216.296 135.743 C 215.814 137.010,215.814 143.961,216.296 144.259 C 217.272 144.862,216.272 145.688,214.067 146.102 L 212.778 146.344 212.778 139.843 L 212.778 133.341 213.852 132.967 C 215.256 132.477,215.184 132.442,215.196 133.611 C 215.207 134.557,215.237 134.577,215.619 133.889 C 216.933 131.520,218.619 131.165,218.818 133.216 M178.042 134.681 C 178.110 134.887,177.667 135.579,177.056 136.218 C 175.983 137.341,173.693 141.830,173.616 142.963 C 173.540 144.080,176.807 152.429,177.639 153.244 C 178.824 154.405,178.415 155.052,176.176 155.558 C 175.122 155.796,173.968 156.071,173.611 156.168 C 172.860 156.374,172.739 155.534,173.373 154.518 C 173.694 154.004,173.553 153.219,172.725 150.912 L 171.667 147.963 171.558 151.105 C 171.489 153.078,171.617 154.562,171.902 155.094 C 172.477 156.168,172.186 156.433,169.634 157.165 C 167.260 157.846,166.750 157.556,167.561 155.987 C 168.446 154.276,168.426 139.658,167.538 138.301 C 166.764 137.120,167.091 136.781,169.660 136.103 C 171.840 135.528,172.518 135.793,171.886 136.973 C 171.664 137.389,171.486 138.865,171.492 140.253 L 171.502 142.778 172.604 140.194 C 173.402 138.322,173.644 137.282,173.483 136.421 C 173.268 135.275,173.316 135.219,174.871 134.819 C 175.757 134.591,176.648 134.344,176.852 134.270 C 177.390 134.075,177.898 134.250,178.042 134.681 M210.515 134.926 C 211.328 135.739,212.148 139.221,211.698 139.949 C 211.597 140.112,210.591 140.452,209.461 140.705 C 207.424 141.161,207.407 141.175,207.412 142.527 C 207.424 145.730,208.380 146.461,209.679 144.259 C 210.742 142.458,211.651 142.508,211.358 144.352 C 210.897 147.247,207.410 148.831,205.647 146.944 C 201.645 142.663,206.432 130.843,210.515 134.926 M207.837 136.015 C 207.057 136.795,207.293 139.259,208.148 139.259 C 208.778 139.259,208.889 139.012,208.889 137.614 C 208.889 135.859,208.533 135.318,207.837 136.015 M202.359 137.512 C 204.784 140.772,202.762 149.753,199.602 149.753 L 198.423 149.753 198.639 152.072 L 198.856 154.390 196.967 154.795 C 194.769 155.267,194.542 155.153,195.125 153.873 C 195.671 152.675,195.725 139.778,195.185 139.444 C 194.981 139.319,194.815 138.918,194.815 138.555 C 194.815 137.766,197.839 136.666,198.074 137.371 C 198.159 137.625,198.580 137.492,199.177 137.023 C 200.404 136.057,201.389 136.208,202.359 137.512 M193.104 139.367 C 194.073 140.335,194.689 143.518,194.056 144.281 C 193.842 144.539,192.842 144.948,191.834 145.190 L 190.000 145.629 190.000 147.188 C 190.000 150.065,191.733 150.888,192.378 148.318 C 192.682 147.108,194.075 147.044,194.073 148.241 C 194.067 151.689,189.668 153.358,187.667 150.671 C 184.401 146.283,189.473 135.736,193.104 139.367 M198.765 138.765 C 198.273 139.258,198.482 148.222,198.981 148.057 C 199.894 147.756,200.360 146.065,200.365 143.031 C 200.371 139.451,199.746 137.784,198.765 138.765 M190.430 140.459 C 189.649 141.239,189.886 143.704,190.741 143.704 C 191.370 143.704,191.481 143.457,191.481 142.059 C 191.481 140.303,191.126 139.763,190.430 140.459 M185.056 141.701 C 185.402 142.229,185.759 143.548,185.849 144.632 L 186.012 146.604 183.705 147.252 L 181.397 147.899 181.622 149.536 C 181.988 152.208,183.281 152.858,184.019 150.741 C 184.558 149.194,186.129 149.111,185.764 150.648 C 184.288 156.858,178.698 155.075,178.710 148.398 C 178.721 142.368,182.725 138.143,185.056 141.701 M160.370 144.485 C 160.370 146.713,160.384 146.743,161.296 146.515 C 162.058 146.323,162.222 146.417,162.222 147.039 C 162.222 147.506,161.867 147.931,161.296 148.148 C 159.757 148.733,159.912 157.555,161.454 157.151 C 162.572 156.859,162.664 158.038,161.590 158.883 C 158.530 161.290,157.778 160.374,157.778 154.245 C 157.778 150.636,157.654 149.279,157.315 149.165 C 156.944 149.041,156.944 148.752,157.315 147.719 C 157.569 147.010,157.778 145.738,157.778 144.893 C 157.778 143.598,157.938 143.270,158.796 142.804 C 160.317 141.979,160.370 142.036,160.370 144.485 M181.843 143.172 C 181.387 144.372,181.375 145.926,181.822 145.926 C 182.785 145.926,183.333 145.385,183.333 144.435 C 183.333 142.234,182.476 141.508,181.843 143.172 M128.796 148.347 C 130.833 149.773,130.637 153.693,128.412 156.053 L 127.215 157.323 128.385 157.746 C 130.896 158.654,131.324 162.656,129.226 165.603 C 127.409 168.153,119.164 170.536,120.707 168.064 C 121.527 166.751,121.713 152.076,120.925 150.873 C 120.059 149.551,120.335 149.199,122.801 148.480 C 125.587 147.667,127.756 147.619,128.796 148.347 M155.580 148.532 C 156.996 149.289,156.099 151.852,154.418 151.852 C 153.737 151.852,153.543 151.488,153.676 150.463 C 153.764 149.785,152.687 149.898,152.289 150.608 C 151.721 151.623,152.210 152.475,153.763 153.175 C 156.861 154.572,157.622 157.405,155.537 159.779 C 152.895 162.789,148.194 162.139,149.710 158.974 C 150.396 157.543,151.989 157.548,152.154 158.981 C 152.286 160.127,152.984 160.296,153.881 159.399 C 154.801 158.479,154.423 157.710,152.403 156.392 C 149.448 154.463,148.979 153.234,150.278 150.820 C 151.449 148.644,153.851 147.606,155.580 148.532 M124.691 149.877 C 124.312 150.255,124.398 157.037,124.782 157.037 C 125.732 157.037,127.037 154.710,127.037 153.017 C 127.037 150.659,125.700 148.868,124.691 149.877 M147.011 150.727 C 149.841 152.242,149.014 161.551,145.906 163.158 C 142.727 164.802,140.982 163.221,140.798 158.530 C 140.571 152.750,143.625 148.915,147.011 150.727 M143.873 153.471 C 143.572 155.076,143.791 161.694,144.158 162.060 C 145.206 163.106,146.358 156.300,145.607 153.492 C 145.178 151.886,144.173 151.874,143.873 153.471 M137.833 152.993 C 139.649 153.964,140.298 159.789,138.927 162.807 C 137.165 166.687,132.880 167.056,131.868 163.415 C 130.223 157.490,133.978 150.929,137.833 152.993 M134.785 156.019 C 134.285 157.854,134.574 163.614,135.196 164.227 C 136.346 165.359,137.405 157.540,136.442 155.030 C 136.027 153.948,135.217 154.431,134.785 156.019 M124.444 162.787 L 124.444 166.686 125.525 166.127 C 128.112 164.789,127.949 158.889,125.325 158.889 C 124.454 158.889,124.444 158.929,124.444 162.787 " stroke="none" fill="#fbfbfb" fill-rule="evenodd"></path><path id="path1" d="M215.815 115.082 C 214.817 115.232,214.864 115.296,217.044 116.760 C 221.119 119.496,224.302 123.632,227.590 130.465 C 230.744 137.018,234.347 140.997,235.806 139.538 C 237.857 137.487,233.593 120.634,230.147 117.171 C 228.035 115.050,221.936 114.161,215.815 115.082 M201.759 117.684 C 197.940 118.627,194.816 119.493,194.818 119.607 C 194.820 119.721,196.112 120.206,197.689 120.685 C 199.265 121.163,202.306 122.382,204.444 123.393 C 208.126 125.134,208.604 125.261,213.412 125.770 C 216.205 126.066,219.497 126.621,220.727 127.004 C 223.324 127.812,223.311 127.829,221.830 125.522 C 219.285 121.555,213.225 116.905,209.630 116.160 C 209.120 116.055,205.579 116.740,201.759 117.684 M183.519 123.113 C 172.621 127.021,160.370 132.872,160.370 134.168 C 160.370 134.858,164.122 134.179,169.074 132.591 C 175.855 130.417,186.362 127.976,193.827 126.840 C 203.301 125.398,202.987 125.552,199.345 124.138 C 191.680 121.161,189.376 121.012,183.519 123.113 M216.788 132.678 C 216.370 133.140,215.843 133.852,215.617 134.259 C 215.240 134.941,215.207 134.916,215.196 133.941 C 215.186 132.974,215.097 132.904,214.167 133.134 C 212.685 133.500,212.388 133.925,212.919 134.918 C 213.418 135.849,213.336 143.963,212.814 145.416 C 212.539 146.180,212.584 146.191,214.414 145.830 C 216.285 145.460,216.973 144.536,215.880 143.860 C 215.430 143.583,215.610 136.647,216.097 135.485 C 216.241 135.140,216.786 134.807,217.309 134.744 C 218.528 134.597,219.219 133.569,218.675 132.707 C 218.078 131.760,217.626 131.753,216.788 132.678 M175.022 134.974 C 173.491 135.447,172.921 136.183,173.708 136.669 C 174.060 136.887,173.823 137.800,172.734 140.423 L 171.296 143.889 171.186 141.138 C 171.124 139.596,171.269 137.922,171.514 137.329 C 172.096 135.923,171.927 135.836,169.646 136.363 C 167.661 136.821,166.976 137.495,167.729 138.247 C 168.318 138.836,168.308 154.799,167.718 156.095 C 167.122 157.403,167.445 157.561,169.638 157.035 C 171.619 156.560,172.232 155.904,171.510 155.034 C 171.232 154.700,171.122 153.129,171.191 150.502 L 171.296 146.481 172.650 150.185 C 173.467 152.422,173.871 154.028,173.668 154.241 C 172.810 155.142,173.301 155.991,174.537 155.744 C 178.289 154.992,178.722 154.557,177.282 152.983 C 176.806 152.463,175.706 150.055,174.837 147.633 L 173.258 143.229 174.313 140.596 C 174.894 139.148,175.911 137.359,176.573 136.622 C 178.509 134.467,178.092 134.024,175.022 134.974 M206.793 134.990 C 204.898 136.318,203.745 143.043,204.969 145.624 C 206.530 148.912,210.063 148.095,211.274 144.167 C 211.484 143.488,211.389 143.333,210.766 143.333 C 210.345 143.333,210.000 143.565,210.000 143.848 C 210.000 145.061,208.617 146.161,207.935 145.491 C 206.707 144.283,206.758 141.190,208.010 140.911 C 211.567 140.119,211.582 140.106,211.401 137.926 C 211.141 134.788,209.015 133.434,206.793 134.990 M209.034 136.141 C 209.479 137.300,209.272 139.175,208.673 139.405 C 207.467 139.868,207.037 139.641,207.037 138.543 C 207.037 136.233,208.428 134.561,209.034 136.141 M199.066 137.416 C 198.575 137.959,198.312 138.043,198.112 137.719 C 197.897 137.371,197.503 137.372,196.325 137.725 C 194.670 138.221,194.585 138.369,195.369 139.405 C 195.902 140.109,195.878 151.202,195.338 153.796 C 195.098 154.950,195.347 155.023,197.500 154.425 C 198.875 154.043,199.235 153.591,198.519 153.148 C 197.490 152.512,198.106 149.269,199.214 149.491 C 201.577 149.963,203.004 147.168,203.004 142.069 C 203.004 137.319,201.144 135.120,199.066 137.416 M200.146 139.104 C 201.161 141.751,200.104 148.551,198.757 148.035 C 198.128 147.793,197.799 139.362,198.395 138.765 C 198.853 138.308,199.919 138.514,200.146 139.104 M189.333 139.640 C 186.878 141.928,186.171 148.904,188.177 151.057 C 189.784 152.782,192.952 151.588,193.684 148.981 C 194.144 147.344,192.949 147.262,192.336 148.889 C 191.796 150.318,190.507 150.406,189.991 149.050 C 189.394 147.480,189.540 145.632,190.278 145.417 C 190.634 145.314,191.654 145.041,192.544 144.811 L 194.161 144.392 193.995 142.387 C 193.725 139.129,191.371 137.742,189.333 139.640 M191.618 140.833 C 192.088 142.586,191.884 143.609,191.019 143.841 C 189.694 144.196,189.630 144.146,189.630 142.753 C 189.630 140.384,191.114 138.951,191.618 140.833 M182.037 141.091 C 178.632 142.484,177.464 152.651,180.572 153.844 C 182.728 154.671,185.556 152.721,185.556 150.407 C 185.556 149.611,184.420 150.015,184.070 150.935 C 183.187 153.260,181.481 152.149,181.481 149.247 L 181.481 147.525 183.512 147.071 C 185.949 146.525,186.043 146.403,185.711 144.189 C 185.315 141.551,183.877 140.338,182.037 141.091 M183.261 144.170 C 183.323 145.139,183.212 145.926,183.014 145.926 C 182.815 145.926,182.390 146.027,182.067 146.151 C 181.593 146.333,181.481 146.092,181.481 144.885 C 181.481 141.690,183.061 141.056,183.261 144.170 M158.796 142.993 C 158.350 143.253,158.148 143.831,158.148 144.852 C 158.148 145.666,157.876 146.859,157.544 147.502 C 157.126 148.310,157.069 148.714,157.358 148.811 C 157.641 148.905,157.778 150.461,157.778 153.574 C 157.778 159.652,158.616 160.931,161.246 158.862 C 162.471 157.898,162.488 157.407,161.296 157.407 L 160.370 157.407 160.370 152.821 C 160.370 148.546,160.421 148.221,161.111 148.041 C 161.519 147.934,161.852 147.582,161.852 147.257 C 161.852 146.914,161.542 146.667,161.111 146.667 C 160.460 146.667,160.370 146.420,160.370 144.630 C 160.370 142.516,160.099 142.234,158.796 142.993 M123.335 148.477 C 121.023 149.085,120.102 149.932,121.091 150.543 C 121.611 150.865,121.631 167.271,121.111 167.593 C 120.907 167.718,120.741 168.128,120.741 168.503 C 120.741 169.284,124.495 168.542,126.925 167.282 C 130.973 165.182,131.660 158.998,127.980 157.783 L 126.675 157.353 127.832 156.379 C 132.812 152.189,129.741 146.792,123.335 148.477 M151.301 149.786 C 149.080 151.881,149.445 154.125,152.315 156.021 C 154.651 157.564,155.038 158.608,153.717 159.802 C 152.802 160.631,151.827 160.296,151.947 159.194 C 152.052 158.226,151.006 157.838,150.167 158.533 C 147.767 160.525,151.501 162.445,154.351 160.684 C 157.762 158.576,157.174 155.157,153.010 152.888 C 151.731 152.191,151.505 151.140,152.434 150.212 C 153.270 149.375,153.704 149.493,153.704 150.556 C 153.704 151.739,155.320 151.874,155.926 150.741 C 157.196 148.368,153.593 147.625,151.301 149.786 M126.721 150.463 C 127.827 152.506,126.994 156.069,125.185 157.037 C 124.466 157.422,124.444 157.319,124.444 153.532 C 124.444 149.631,124.445 149.630,125.357 149.630 C 125.924 149.630,126.441 149.946,126.721 150.463 M143.015 151.680 C 140.009 154.209,140.042 162.123,143.064 163.375 C 146.810 164.927,150.297 156.873,147.892 152.222 C 146.974 150.446,144.772 150.201,143.015 151.680 M145.565 152.802 C 146.126 154.278,146.021 160.839,145.424 161.656 C 144.555 162.845,143.788 162.101,143.499 159.788 C 142.867 154.729,144.368 149.654,145.565 152.802 M133.911 154.105 C 131.208 156.478,130.956 163.726,133.519 165.405 C 136.663 167.465,140.157 162.425,139.458 156.836 C 138.975 152.963,136.563 151.776,133.911 154.105 M136.553 155.093 C 137.389 158.241,136.749 164.444,135.588 164.444 C 134.253 164.444,133.799 156.142,135.057 154.751 C 135.898 153.823,136.236 153.900,136.553 155.093 M126.667 159.259 C 128.026 160.619,127.584 164.943,125.958 166.192 C 124.617 167.221,124.444 166.810,124.444 162.593 C 124.444 158.137,124.884 157.477,126.667 159.259 " stroke="none" fill="#474747" fill-rule="evenodd"></path><path id="path2" d="M220.648 114.706 C 221.106 114.794,221.856 114.794,222.315 114.706 C 222.773 114.618,222.398 114.545,221.481 114.545 C 220.565 114.545,220.190 114.618,220.648 114.706 M215.677 140.926 C 215.679 142.352,215.746 142.890,215.826 142.121 C 215.906 141.353,215.905 140.186,215.823 139.529 C 215.741 138.871,215.675 139.500,215.677 140.926 M189.716 142.963 C 189.716 143.676,189.792 143.968,189.885 143.611 C 189.978 143.255,189.978 142.671,189.885 142.315 C 189.792 141.958,189.716 142.250,189.716 142.963 M189.716 146.667 C 189.716 147.380,189.792 147.671,189.885 147.315 C 189.978 146.958,189.978 146.375,189.885 146.019 C 189.792 145.662,189.716 145.954,189.716 146.667 " stroke="none" fill="#a4a4a4" fill-rule="evenodd"></path><path id="path3" d="M219.985 119.352 C 220.893 120.319,221.684 121.111,221.744 121.111 C 222.022 121.111,221.728 120.779,220.093 119.244 L 218.333 117.593 219.985 119.352 M218.519 121.667 C 219.210 122.380,219.858 122.963,219.960 122.963 C 220.062 122.963,219.580 122.380,218.889 121.667 C 218.198 120.954,217.549 120.370,217.447 120.370 C 217.345 120.370,217.827 120.954,218.519 121.667 M213.107 139.815 C 213.108 142.463,213.167 143.498,213.238 142.114 C 213.309 140.731,213.309 138.564,213.237 137.299 C 213.165 136.035,213.106 137.167,213.107 139.815 M207.130 138.333 C 207.135 139.148,207.210 139.438,207.299 138.977 C 207.388 138.516,207.384 137.850,207.292 137.496 C 207.199 137.142,207.126 137.519,207.130 138.333 M195.667 141.852 C 195.667 142.972,195.736 143.431,195.821 142.870 C 195.906 142.310,195.906 141.394,195.821 140.833 C 195.736 140.273,195.667 140.731,195.667 141.852 M207.138 142.593 C 207.138 143.509,207.210 143.884,207.298 143.426 C 207.387 142.968,207.387 142.218,207.298 141.759 C 207.210 141.301,207.138 141.676,207.138 142.593 M157.879 145.185 C 157.879 146.102,157.951 146.477,158.039 146.019 C 158.127 145.560,158.127 144.810,158.039 144.352 C 157.951 143.894,157.879 144.269,157.879 145.185 M178.624 148.704 C 178.627 149.722,178.699 150.095,178.784 149.532 C 178.869 148.969,178.867 148.136,178.779 147.680 C 178.691 147.225,178.622 147.685,178.624 148.704 M143.460 157.222 C 143.462 158.852,143.527 159.472,143.605 158.601 C 143.683 157.730,143.682 156.397,143.603 155.638 C 143.523 154.880,143.459 155.593,143.460 157.222 M136.781 159.444 C 136.784 160.667,136.853 161.122,136.935 160.456 C 137.018 159.791,137.016 158.791,136.931 158.234 C 136.847 157.678,136.779 158.222,136.781 159.444 " stroke="none" fill="#9c9c9c" fill-rule="evenodd"></path><path id="path4" d="M171.238 140.556 C 171.239 142.185,171.305 142.806,171.383 141.935 C 171.461 141.064,171.460 139.730,171.380 138.972 C 171.301 138.213,171.237 138.926,171.238 140.556 M211.437 139.178 C 211.315 139.914,211.370 140.260,211.575 140.054 C 211.762 139.868,211.853 139.321,211.777 138.839 C 211.660 138.098,211.608 138.150,211.437 139.178 M198.290 143.519 C 198.290 145.963,198.350 146.915,198.423 145.634 C 198.495 144.353,198.495 142.353,198.421 141.189 C 198.348 140.026,198.289 141.074,198.290 143.519 M204.167 142.407 C 204.172 143.222,204.247 143.512,204.336 143.051 C 204.425 142.591,204.421 141.924,204.329 141.570 C 204.236 141.216,204.163 141.593,204.167 142.407 M171.111 150.741 C 171.111 152.846,171.185 154.494,171.276 154.403 C 171.539 154.140,171.604 147.406,171.345 147.148 C 171.216 147.019,171.111 148.636,171.111 150.741 M198.254 150.926 C 198.257 151.944,198.329 152.317,198.414 151.754 C 198.499 151.191,198.497 150.358,198.409 149.902 C 198.321 149.447,198.251 149.907,198.254 150.926 M145.667 158.519 C 145.667 159.639,145.736 160.097,145.821 159.537 C 145.906 158.977,145.906 158.060,145.821 157.500 C 145.736 156.940,145.667 157.398,145.667 158.519 " stroke="none" fill="#b9b9b9" fill-rule="evenodd"></path></g></svg>